<?phpxml version="1.0" encoding="utf-8"?>
<!-- Generator: Adobe Illustrator 23.1.1, SVG Export Plug-In . SVG Version: 6.00 Build 0)  -->
<svg version="1.1"
	 id="Layer_1" xmlns:cc="http://creativecommons.org/ns#" xmlns:dc="http://purl.org/dc/elements/1.1/" xmlns:rdf="http://www.w3.org/1999/02/22-rdf-syntax-ns#" xmlns:svg="http://www.w3.org/2000/svg"
	 xmlns="http://www.w3.org/2000/svg" xmlns:xlink="http://www.w3.org/1999/xlink" x="0px" y="0px" viewBox="0 0 1185.5 201"
	 style="enable-background:new 0 0 1185.5 201;" xml:space="preserve">
<style type="text/css">
	.st0{fill:#5959D8;}
	.st1{fill:#FFFFFF;}
	.st2{fill:#ED6A9F;}
	.st3{fill:#5959D8;stroke:#5959D8;stroke-width:0.5;stroke-miterlimit:10;}
</style>
<g>
	<path class="st0" d="M727.5,178.2c-8.5,0-15.4-6.9-15.4-15.4V46.1c0-8.5,6.9-15.4,15.4-15.4h345c8.5,0,15.4,6.9,15.4,15.4v116.7
		c0,8.5-6.9,15.4-15.4,15.4H727.5z"/>
	<path class="st0" d="M1072.5,30.9c8.4,0,15.2,6.8,15.2,15.2v116.7c0,8.4-6.8,15.2-15.2,15.2h-345c-8.4,0-15.2-6.8-15.2-15.2V46.1
		c0-8.4,6.8-15.2,15.2-15.2H1072.5 M1072.5,30.5h-345c-8.6,0-15.6,7-15.6,15.6v116.7c0,8.6,7,15.6,15.6,15.6h345
		c8.6,0,15.6-7,15.6-15.6V46.1C1088,37.5,1081.1,30.5,1072.5,30.5L1072.5,30.5z"/>
</g>
<g>
	<g>
		<path id="path12_2_" class="st1" d="M819.1,89.3L813.4,72h-24.8v18.5h22.2v16.7h-22.2v19h18.9v16.6h-50.1v-16.6h12.1V72h-12.2
			V55.4h68.1l9.6,28.7L819.1,89.3z"/>
		<path id="path14_2_" class="st1" d="M851.7,127.7v-34l-14.3-4.7l4.9-15.1l21.9,7.4c0.1-0.1,0.8-0.5,2.1-1.3
			c1.3-0.8,2.3-1.4,3.1-1.9c0.8-0.5,2.1-1.1,3.7-1.9c1.6-0.8,3.2-1.4,4.6-1.9c1.4-0.5,3.1-0.9,5.1-1.3c2-0.4,3.9-0.5,5.8-0.5
			c3,0,5.6,0.3,7.9,0.9l3.6,21.4L884.5,98l-2-7.7c-2,0.3-4.3,1-6.7,2c-2.4,1-4.2,2.1-5.4,3.3v32.2h14.3v15h-45.8v-15L851.7,127.7
			L851.7,127.7L851.7,127.7z"/>
		<path id="path16_2_" class="st1" d="M940.8,145.6c-5.5,0-10.4-0.8-14.8-2.4c-4.4-1.6-8.2-3.9-11.4-7c-3.1-3.1-5.6-6.9-7.2-11.4
			c-1.7-4.5-2.5-9.7-2.5-15.5c0-5.8,0.9-11,2.6-15.6c1.7-4.6,4.2-8.4,7.3-11.6c3.2-3.2,7-5.6,11.4-7.2c4.4-1.6,9.3-2.5,14.7-2.5
			c10,0,17.8,2.9,23.2,8.7c5.5,5.8,8.2,14.3,8.2,25.5c0,3.4-0.3,6.5-0.9,9.3h-46.8c0.6,9.4,6.1,14.1,16.4,14.1
			c8.5,0,16.5-1.4,24-4.3l6,11.9C961.9,143,951.9,145.6,940.8,145.6z M940.9,88.1c-5.2,0-8.8,1.1-11,3.3c-2.2,2.2-3.9,5.7-5,10.5
			h29.6C954.6,92.7,950,88.1,940.9,88.1z"/>
		<path id="path18_2_" class="st1" d="M1016.1,145.6c-5.5,0-10.4-0.8-14.8-2.4c-4.4-1.6-8.2-3.9-11.4-7c-3.1-3.1-5.6-6.9-7.2-11.4
			c-1.7-4.5-2.5-9.7-2.5-15.5c0-5.8,0.9-11,2.6-15.6c1.7-4.6,4.2-8.4,7.3-11.6c3.2-3.2,7-5.6,11.4-7.2c4.4-1.6,9.3-2.5,14.7-2.5
			c10,0,17.8,2.9,23.2,8.7c5.5,5.8,8.2,14.3,8.2,25.5c0,3.4-0.3,6.5-0.9,9.3h-46.8c0.6,9.4,6.1,14.1,16.4,14.1
			c8.5,0,16.5-1.4,24-4.3l6,11.9C1037.2,143,1027.2,145.6,1016.1,145.6z M1016.3,88.1c-5.2,0-8.8,1.1-11,3.3
			c-2.2,2.2-3.9,5.7-5,10.5h29.6C1029.9,92.7,1025.3,88.1,1016.3,88.1z"/>
	</g>
</g>
<g>
	<path id="path2_1_" class="st0" d="M125.9,88.3l-9.1-27.2H78v29h34.8v26H78v29.7h29.5v25.9H29.2v-25.9h18.9V61.1h-19V35.2h106.4
		L150.6,80L125.9,88.3z"/>
	<path id="path4_2_" class="st2" d="M203.7,36.3c12.8,0,24.3,5.6,32.5,14.6c8.1-9,19.7-14.6,32.5-14.6c24.3,0,44.1,20.6,44.1,45.9
		c0,19-12.1,40.1-36.2,62.4c-16.9,15.3-33.4,25.7-34.1,26.2c-1.9,1.2-4.2,1.9-6.3,1.9s-4.4-0.7-6.3-1.9
		c-0.7-0.5-17.2-10.9-34.1-26.2c-24.1-22.3-36.2-43.4-36.2-62.4C159.7,57,179.4,36.3,203.7,36.3z M211.6,127.4
		c9.3,8.6,18.5,15.5,24.6,19.7c6-4.2,15.5-11.4,24.8-19.9c18.5-17.2,28.5-33.2,28.5-45c0-12.5-9.3-22.7-20.9-22.7
		c-11.6,0-20.9,9.7-20.9,21.8c0,6.5-5.1,11.6-11.6,11.6c-6.5,0-11.6-5.1-11.6-11.6c0-12.1-9.3-21.8-20.9-21.8
		c-11.6,0-20.9,10.2-20.9,22.7C182.9,94.1,192.8,110.3,211.6,127.4z"/>
	<path id="path6_1_" class="st0" d="M322.9,171.7v-23.4h19.8V95.8l-22.2-7.7l7.6-23.7l32.7,11.2c6.8-4.7,13.3-8.1,19.5-10.4
		c6.2-2.2,13.8-3.3,22.8-3.3c7.3,0,13.7,1.2,19.1,3.5c5.4,2.3,9.6,5.5,12.7,9.7c3.1,4.2,5.4,8.9,6.8,14.1c1.4,5.2,2.1,11,2,17.3
		v41.8h19.4v23.4h-58.3v-23.4h9.6V110c-0.1-7-1.5-12.5-4.4-16.4c-2.8-3.9-7.7-5.8-14.5-5.8c-4.3,0-8.6,0.8-12.9,2.3
		c-4.3,1.5-7.8,3.4-10.4,5.5v52.6h9.1v23.4L322.9,171.7L322.9,171.7z"/>
	<path id="path8_1_" class="st0" d="M465.7,66.4h19.2V50l29.4-6.7v23.1h27.5v23.4h-27.5v36.6c0,17.1,4.1,25.6,12.3,25.6
		c5.1,0,10.2-0.6,15.2-1.9l5.8,21.8c-8.6,2.9-16.1,4.3-22.5,4.3c-12.8,0-22.6-3.6-29.7-10.8c-7-7.2-10.5-18-10.5-32.3V89.9h-19.2
		L465.7,66.4L465.7,66.4z"/>
	<path id="path10_1_" class="st0" d="M647.2,93.3L623,97l-1.8-8.4c-4.9-1.9-10.2-2.8-15.7-2.8c-8,0-13.9,0.7-17.8,2.1
		c-3.8,1.4-5.8,3.6-5.8,6.7c0,3.1,0.9,5.4,2.7,6.8c1.8,1.4,4.8,2.4,8.8,2.8l22.5,2.3c11.5,1.3,20.1,4.7,25.8,10.2
		c5.6,5.5,8.4,13.5,8.4,23.8c0,11.7-3.9,20.6-11.7,26.6c-7.8,6-18.8,9.1-32.9,9.1c-8.4,0-16.8-0.7-25.1-2.1
		c-8.4-1.4-15.4-3.3-21.1-5.5l-3.3-24.6l23.4-3.7l1.9,8.9c6.9,2.2,14.8,3.3,23.7,3.3c11,0,16.5-3.4,16.5-10.2c0-2.5-0.9-4.6-2.8-6.3
		c-1.9-1.7-4.6-2.7-8.3-3l-16.4-1.5C569.4,129,557,117.2,557,95.9c0-10.6,4.1-18.8,12.3-24.8s19.7-9,34.6-9
		c13.1,0,26.3,2.8,39.6,8.5L647.2,93.3z"/>
</g>
<polygon class="st3" points="719.5,106.1 667.3,106.1 715.6,169.1 "/>
</svg>
