<?xml version="1.0" encoding="UTF-8"?>
<svg width="100px" height="32px" viewBox="0 0 100 32" version="1.1" xmlns="http://www.w3.org/2000/svg" xmlns:xlink="http://www.w3.org/1999/xlink">
    <!-- Generator: Sketch 52.2 (67145) - http://www.bohemiancoding.com/sketch -->
    <title>Assets / Logos / Mozilla / Logotype Copy 3</title>
    <desc>Created with Sketch.</desc>
    <g id="Assets-/-Logos-/-Mozilla-/-Logotype-Copy-3" stroke="none" stroke-width="1" fill="none" fill-rule="evenodd">
        <g id="Group" transform="translate(0.000000, 6.000000)" fill="#000000">
            <path d="M1.024,16 L1.024,4.32 L3.216,4.32 L6.688,9.136 L10.288,4.32 L12.384,4.32 L12.384,16 L10.176,16 L10.176,7.808 L6.672,12.512 L3.264,7.888 L3.264,16 L1.024,16 Z M18.56,16.176 C15.968,16.176 14,14.16 14,11.68 C14,9.184 15.968,7.184 18.56,7.184 C21.136,7.184 23.136,9.184 23.136,11.68 C23.136,14.16 21.168,16.176 18.56,16.176 Z M18.576,14.08 C19.888,14.08 20.944,13.008 20.944,11.664 C20.944,10.32 19.888,9.248 18.576,9.248 C17.248,9.248 16.208,10.32 16.208,11.664 C16.208,13.008 17.248,14.08 18.576,14.08 Z M24.384,16 L24.384,14.032 L29.2,9.28 L24.48,9.28 L24.48,7.36 L31.92,7.36 L31.92,9.328 L27.12,14.064 L31.984,14.064 L31.984,16 L24.384,16 Z M33.504,16 L33.504,7.36 L35.76,7.36 L35.76,16 L33.504,16 Z M33.216,4.928 C33.216,4.096 33.808,3.488 34.624,3.488 C35.472,3.488 36.048,4.096 36.048,4.928 C36.048,5.744 35.472,6.336 34.624,6.336 C33.792,6.336 33.216,5.744 33.216,4.928 Z M37.488,16 L37.488,3.392 L39.696,3.392 L39.696,16 L37.488,16 Z M41.424,16 L41.424,3.392 L43.632,3.392 L43.632,16 L41.424,16 Z M48.064,16.176 C46.176,16.176 45.056,15.12 45.056,13.6 C45.056,11.808 46.544,10.704 48.944,10.704 L51.216,10.704 L51.216,10.592 C51.216,9.664 50.592,9.024 49.344,9.024 C48.368,9.024 47.712,9.44 47.312,10.16 L45.28,9.152 C46.16,8 47.424,7.184 49.36,7.184 C51.904,7.184 53.36,8.512 53.36,10.688 L53.36,16 L51.232,16 L51.232,14.672 C50.608,15.568 49.424,16.176 48.064,16.176 Z M48.704,14.352 C49.76,14.352 50.8,13.712 51.232,12.784 L51.232,12.32 L49.2,12.32 C47.888,12.32 47.36,12.736 47.36,13.408 C47.36,14.032 47.792,14.352 48.704,14.352 Z" id="Mozilla"></path>
            <path d="M62.344,16 L62.344,4.32 L63.688,4.32 L63.688,14.704 L69.704,14.704 L69.704,16 L62.344,16 Z M74.36,16.176 C72.296,16.176 71.288,15.024 71.288,13.632 C71.288,11.856 72.792,10.832 75.208,10.832 L77.944,10.832 L77.944,10.496 C77.944,9.184 77.096,8.304 75.416,8.304 C74.12,8.304 73.256,8.848 72.664,9.76 L71.528,9.04 C72.392,7.92 73.64,7.184 75.432,7.184 C77.896,7.184 79.224,8.544 79.224,10.496 L79.224,16 L77.944,16 L77.944,14.48 C77.176,15.536 75.848,16.176 74.36,16.176 Z M74.6,15.024 C75.896,15.024 77.256,14.352 77.944,13.072 L77.944,11.888 L75.272,11.888 C73.48,11.888 72.632,12.464 72.632,13.536 C72.632,14.384 73.24,15.024 74.6,15.024 Z M86.04,16.176 C84.776,16.176 83.48,15.552 82.792,14.464 L82.792,16 L81.512,16 L81.512,3.376 L82.808,3.376 L82.808,8.88 C83.496,7.824 84.776,7.184 86.056,7.184 C88.456,7.184 90.44,9.04 90.44,11.68 C90.44,14.32 88.488,16.176 86.04,16.176 Z M85.928,14.944 C87.72,14.944 89.096,13.552 89.096,11.664 C89.096,9.824 87.72,8.384 85.928,8.384 C84.088,8.384 82.696,9.872 82.696,11.664 C82.696,13.488 84.088,14.944 85.928,14.944 Z M95.496,16.176 C93.608,16.176 92.376,15.472 91.608,14.368 L92.744,13.6 C93.336,14.448 94.216,15.008 95.528,15.008 C96.872,15.008 97.576,14.368 97.576,13.504 C97.576,12.544 96.392,12.352 95.128,12.096 C93.64,11.808 92.056,11.408 92.056,9.68 C92.056,8.336 93.224,7.152 95.272,7.168 C96.872,7.168 97.96,7.76 98.728,8.704 L97.64,9.44 C97.128,8.752 96.376,8.288 95.272,8.288 C93.944,8.288 93.4,8.864 93.4,9.664 C93.4,10.56 94.44,10.736 95.784,11.008 C97.272,11.296 98.904,11.712 98.904,13.488 C98.904,14.848 97.752,16.192 95.496,16.176 Z" id="Labs"></path>
        </g>
    </g>
</svg>