<svg xmlns="http://www.w3.org/2000/svg" xmlns:xlink="http://www.w3.org/1999/xlink" id="Layer_1" x="0px" y="0px" viewBox="0 0 24 24" xml:space="preserve"><path d="M23.9,7.1c-0.2-4.4-2.6-6.8-7-7C15.7,0,15.3,0,12,0S8.3,0,7.1,0.1c-4.4,0.2-6.8,2.6-7,7C0,8.3,0,8.7,0,12s0,3.7,0.1,4.9 c0.2,4.4,2.6,6.8,7,7C8.3,24,8.7,24,12,24s3.7,0,4.9-0.1c4.4-0.2,6.8-2.6,7-7C24,15.7,24,15.3,24,12S24,8.3,23.9,7.1z M21.8,16.8 c-0.1,3.2-1.7,4.8-4.9,4.9c-1.3,0.1-1.6,0.1-4.9,0.1c-3.2,0-3.6,0-4.8-0.1c-3.3-0.1-4.8-1.7-4.9-4.9c-0.1-1.3-0.1-1.6-0.1-4.8 s0-3.6,0.1-4.8C2.4,4,4,2.4,7.2,2.3C8.4,2.2,8.8,2.2,12,2.2s3.6,0,4.9,0.1c3.3,0.1,4.8,1.7,4.9,4.9c0.1,1.3,0.1,1.6,0.1,4.8 S21.9,15.6,21.8,16.8z"></path><path d="M12,5.8c-3.4,0-6.2,2.8-6.2,6.2s2.8,6.2,6.2,6.2s6.2-2.8,6.2-6.2S15.4,5.8,12,5.8z M12,16c-2.2,0-4-1.8-4-4s1.8-4,4-4 s4,1.8,4,4S14.2,16,12,16z"></path><circle cx="18.4" cy="5.6" r="1.4"></circle></svg>