<svg xmlns="http://www.w3.org/2000/svg" xmlns:xlink="http://www.w3.org/1999/xlink" id="Layer_1" x="0px" y="0px" viewBox="0 0 908.2 356.8" xml:space="preserve"><g>	<path fill="#FFFFFF" d="M663.5,246.8c3.2-0.3,6.5-0.7,9.6-1.4c11.4-2.6,22-7.5,32.2-13.2c20-11,38.3-24.3,55.4-39.4  c2.9-2.5,5.6-5.2,8.3-7.8c1.4-1.4,0.7-4.3-1.1-5.2c-0.3-0.1-0.8-0.2-1,0c-0.9,0.7-1.8,1.4-2.6,2.2c-11.2,10.4-23.2,19.9-35.7,28.6  c-11.4,8-23.2,15.4-35.8,21.4c-6.9,3.3-13.9,6.2-21.4,7.9c-3.2,0.7-6.4,1.3-9.6,1.1c-4.5-0.3-6.5-2.2-7.3-6.6  c-0.4-2.1-0.3-4.2-0.1-6.3c0.8-6.7,3.1-13,5.6-19.2c5.2-12.8,11.4-25,18.5-36.8c0.7-1.1,1.3-2.3,1.9-3.5c0.3-0.5,0.1-1.2-0.4-1.5  c-1.1-0.7-2.3-1.4-3.4-2c-3.9-2.1-7.6-2.4-10.6,1.6c-0.1,0.1-0.3,0-0.6,0c-0.3-0.3-0.7-0.7-1-1.2c-5.2-8-14.4-10.6-23-6.6  c-4.4,2-8,5.1-11,8.9c-2.5,3.2-4.6,6.6-6.1,10.3c-0.8,2-2,3.6-3.6,5c-16.8,14.7-33.5,29.5-51.4,42.9c-8.6,6.4-17.3,12.5-26.6,17.9  c-3.8,2.2-7.7,4.2-12.1,5.1c-6.3,1.3-9.1-1.3-8.2-7.8c0.6-4.4,2-8.5,3.6-12.6c3.1-7.8,6.7-15.4,10.4-22.9  c4.1-8.4,8.1-16.9,11.4-25.6c2-5.4,3.7-10.8,4.3-16.6c0.2-1.9,0.2-3.8-0.3-5.7c-1.2-4.6-5.5-7.1-10.1-6.1c-2.1,0.5-3.9,1.4-5.7,2.5  c-3.6,2.2-6.9,4.8-10,7.6c-5.7,5.1-10.9,10.7-15.9,16.4c-5.7,6.4-11.3,12.9-16.9,19.4c-0.2,0.3-0.4,0.7-0.7,0.9  c-0.3,0.2-0.7,0.5-0.9,0.4c-0.6-0.2-0.7-0.7-0.5-1.3c0.2-0.5,0.5-1,0.7-1.5c3.5-8.5,7.8-16.6,12.3-24.5c0.6-1,1.2-2,1.8-2.9  c0.4-0.7,0.5-1.5,0-2.2c-3.4-5.6-10-5.9-13.3-1.3c-1,1.4-1.8,2.9-2.6,4.5c-1,1.9-2.2,3.5-3.8,5c-12.7,11.6-25.5,23-39.5,33.1  c-8.4,6-17.1,11.5-26.5,15.8c-2.9,1.3-6,2.5-9.1,3.4c-4.2,1.3-8.6,1.9-13,1.4c-3.2-0.3-5.3-2-6.2-5.1c-0.9-2.9-1.4-5.9-1.6-9  c-0.3-7.1,0.6-14.1,2.3-21c1.2-4.7,1.2-4.7,5.9-5.3c3.4-0.5,6.8-0.9,10.1-1.7c7.4-1.8,13.8-5.6,18.9-11.3c3.6-3.9,5.8-8.5,5.3-14  c-0.5-6.1-4.2-9.7-10.3-10.2c-8.2-0.6-15.5,1.5-22,6.5c-3.6,2.8-7,6-9.5,9.8c-2.2,3.4-5,6.2-8,8.9c-2.6,2.2-5.2,4.5-7.7,6.8  c-17.2,15.2-34.8,29.8-53.4,43.3c-8.2,5.9-16.5,11.7-25.2,16.9c-4.6,2.7-9.3,5.2-14.5,6.8c-1.8,0.6-3.7,1-5.6,1  c-1.7-0.1-2.8-1-3.2-2.7c-0.4-1.7-0.4-3.4-0.2-5.1c0.3-3.1,1.2-6,2.1-8.9c2.8-8.6,6.5-16.7,10.3-24.8c3.4-7.2,6.9-14.5,10.4-21.6  c3.4-6.9,3.7-13.9,1.7-21.1c-0.9-3.3-1.8-6.6-2.9-9.9c-0.7-2-0.4-3.6,0.9-5.3c2-2.5,3.9-5.2,5.6-7.9c2.9-4.7,5-9.8,5.9-15.4  c0.5-2.9,0.2-5.7-0.7-8.5c-2.7-7.7-11.4-9.4-17-3.5c-1.6,1.7-2.7,3.7-3.6,5.8c-1.2,3-1.9,6.2-2.3,9.4c-0.7,6.7-0.3,13.4,1.4,19.9  c0.6,2.3,0.1,4-1.6,5.6c-5.4,5.1-10.6,10.5-16.6,14.9c-13.3,9.6-28.3,14.8-44.5,16.7c-7.7,0.9-6.9,0.4-4.7-5.8  c2.9-8.2,4.6-16.5,4.2-25.2c-0.3-5-1.3-9.9-3.6-14.3c-3.6-6.9-9.3-10.4-17.1-10.6c-6.3-0.2-11.6,2.4-16,6.5  c-8.5,7.9-12.2,17.8-10.7,29.4c0.3,2.6,0,4.8-1.2,7.1c-1.4,2.5-2.6,5.1-3.6,7.8c-2,5.2-3,10.6-2.7,16.3c0.2,3.9,1.2,7.5,3.3,10.8  c3.3,5.3,8.1,7.9,14.5,7.2c3.3-0.3,6.3-1.6,9.1-3.2c4.5-2.6,8.3-6.1,11.5-10.2c1.8-2.2,3.5-4.5,4.9-7c1.2-2.1,2.8-2.8,5.2-2.7  c2.7,0.1,5.4,0.1,8-0.2c21.5-2.7,40.4-10.8,56.1-25.9c1.6-1.6,3.2-3.2,4.9-4.8c0.6-0.6,1.1-1.6,2.6-1.2c1,4,0.9,8.1-0.8,12.1  c-1.9,4.4-3.8,8.8-5.7,13.1c-5.7,13.3-10.8,26.9-14.5,40.9c-1.4,5.2-2.2,10.4-2.1,15.8c0.1,2.7,0.4,5.3,1.6,7.8  c1.6,3.4,4.3,5.2,8.1,5.4c3.1,0.1,6.1-0.6,9-1.6c5.8-2,11.2-4.9,16.5-7.9c14.4-8.4,27.8-18.1,40.9-28.4  c12.3-9.7,24.4-19.7,36.2-29.9c1.4-1.2,2.5-2.9,4.7-3.1c0.8,1.8,0,3.4-0.3,5c-1.2,5.8-1.9,11.7-1.6,17.6c0.4,6.2,1.6,12.1,4.6,17.6  c3.4,6,8.5,9.1,15.5,8.9c6-0.2,11.7-1.7,17.2-3.9c5.5-2.2,10.7-5,15.9-7.9c14.9-8.6,28.5-19.1,41.5-30.4c1.4-1.3,2.9-2.5,4.4-3.6  c0.3-0.3,1-0.2,1.5-0.1c0.2,0,0.3,0.7,0.3,1c-0.5,1.8-1,3.7-1.7,5.5c-1.8,5-3.2,10.2-3.8,15.5c-0.3,2.3-0.3,4.5,0.5,6.8  c1,2.7,5.4,4.2,7.4,1.3c1.1-1.5,2.4-2.9,3.6-4.4c10.8-13.1,21.4-26.4,33-38.8c4.4-4.7,9-9.3,14-13.5c1.9-1.6,3.8-3.2,6.1-4.2  c1-0.5,2.2-1.2,3.2-0.5c1.1,0.8,0.6,2.1,0.2,3.2c-0.8,2.1-1.7,4.2-2.7,6.3c-5.8,13.1-11.6,26.1-17.3,39.3  c-3.7,8.6-6.5,17.5-7.9,26.8c-0.6,4-0.4,8,0.6,11.9c1.2,5.1,4.5,7.8,9.5,8.5c3.5,0.5,6.8,0.2,10.2-0.9c3.8-1.2,7.4-3,10.9-4.9  c11.7-6.5,22.6-14.2,33.1-22.5c12.1-9.6,23.9-19.6,35.6-29.7c1.3-1.1,2.6-2.3,3.9-3.3c0.4-0.3,1-0.8,1.5-0.3  c0.3,0.3,0.5,0.9,0.6,1.4c0.1,1.3,0.1,2.7,0.2,4c0.2,2.7,1,5.2,2.3,7.6c2.6,4.6,7.1,6.4,12.1,5c3.4-0.9,6.2-2.8,9-4.9  c1.1-0.8,2.3-2.7,3.8-1.5c1.1,0.8,0.2,2.5-0.1,3.8c-0.2,0.9-0.6,1.8-0.8,2.8c-0.7,3.9-1.6,7.9-2.1,11.8c-0.6,5.8,0.2,11.4,3,16.6  c2.2,3.9,5.4,6.4,9.9,6.9C659.7,246.7,661.7,246.9,663.5,246.8z M401.6,174c2.9-4.9,6.6-9.3,11.1-12.9c1.9-1.6,4-3,6.3-3.8  c2.2-0.8,4.6-1.2,6.5,0.3c2.3,1.8,1.8,4.5,1.2,6.9c-0.8,3-2.5,5.5-4.7,7.7c-6.5,6.1-14.2,9.3-23.1,9.7c-0.3,0-0.7-0.3-1.2-0.5  C398.3,178.7,400.1,176.4,401.6,174z M291.6,137.3c-0.1-4,0.7-7.9,2.1-11.7c0.6-1.8,1.4-3.5,2.8-4.9c1.6-1.6,4.3-1.2,5.2,0.9  c0.2,0.3,0.3,0.7,0.4,1.1c0.2,1,0.7,3.5,0.3,5.4l0,0c-0.3,1.5-0.6,3.1-1.1,4.6c-0.8,2.3-1.9,4.6-3.2,6.7c-1.5,2.4-2.7,5-5.3,6.6  C290.5,143.3,291.7,140.2,291.6,137.3z M203.4,199.3c-3.6,4.8-7.7,8.9-13.3,11.4c-2.3,1-4.6,1.6-7.2,1.4c-2.7-0.2-4.6-1.6-5.7-4.1  c-1.3-3.1-1.5-6.3-0.8-9.5c1.1-4.9,3-9.3,5.8-13.7c0.9,0.4,1.4,0.4,1.6,0.6c5,4.4,11.1,6.5,17.4,8  C206.7,194.7,206.7,194.8,203.4,199.3z M211,186.6c-0.6,1.3-1.3,2.4-3,2.1c-6.2-0.9-12.4-2.1-17.8-5.7c-0.8-0.5-1.6-1.1-2.3-1.7  c-2-1.6-2.2-2.3-0.9-4.3c1.4-2.3,3-4.4,4.5-6.6c0.5-0.8,1.2-1.5,1.8-2.2c2.1-2.6,2-4.2-0.4-6.1c-3.6-2.8-7.9-2.6-11.3,0.6  c-0.5,0.5-0.9,1.2-1.8,1.1c-0.1-9.1,5.1-18.7,12.6-22.9c1.8-1,3.8-1.8,5.8-2.3c6.8-1.5,13,1.6,16,8c2.6,5.5,3.2,11.4,2.7,17.3  C216.3,171.9,214.1,179.4,211,186.6z M643.4,199.9c-1.7,1.5-3.4,3-5.3,4.2c-1.2,0.8-2.8,1.2-4.2,1.6c-1.7,0.4-2.9-0.7-3.2-2.4  c-0.1-0.9-0.1-1.9-0.2-2.8c0.4-7.5,2.8-14.5,6.3-21.1c2.1-4.1,4.7-7.8,8-11c2.4-2.3,5.2-3.8,8.6-4c3.2-0.2,5.5,1.2,6.9,4  c1.3,2.9,1.7,5.6-0.1,8.6C655.3,185.2,650.5,193.4,643.4,199.9z"></path>	<path fill="#FFFFFF" d="M227.4,248.7c-0.5,0-1.1,0.3-1.4,0.7c-1.1,1.6-1.9,3.3-3,4.9c-3.9,6.1-9.5,9.2-16.7,9.5  c-3.3,0.1-6.5-0.2-9.6-1c-6.5-1.7-12.6-4.5-18.4-7.8c-9.8-5.5-19.2-11.7-28.6-18c-9.9-6.7-19.6-13.9-30.1-19.9  c-0.7-0.4-1.3-0.8-1.9-1.3c-0.6-0.5-0.9-1.2-0.6-2c0.4-1.1,0.9-2.1,1.4-3.1c6-12.6,11.3-25.5,16.2-38.5  c7.2-19.1,14.2-38.2,21.2-57.4c1.2-3.4,2.8-5.3,6.5-6.1c6.8-1.4,13-4.5,18.7-8.3c14.3-9.6,25-22.2,32-38c3-6.7,5-13.6,5.8-20.9  c0.6-5.4-0.1-10.6-2.1-15.7c-3.2-8.1-15-13.9-24.3-5.9c-2.8,2.4-5.2,5.1-7.4,8c-4.9,6.4-8.8,13.4-12.4,20.5  c-7.1,13.9-13,28.5-18.7,43c-1.6,4.1-3.3,8.1-4.7,12.3c-0.8,2.4-2.3,3.3-4.6,3.4c-2.3,0.1-4.6,0.4-6.9,0.4  c-4.2,0.1-8.4,0.2-12.6,0.2c-8.4,0.1-16.8,0.9-25.1,2.2c-14.5,2.2-26.7,8.6-36.8,19.2c-6.5,6.8-11.7,14.5-16.1,22.8  c-1.3,2.3-2.4,4.7-4.4,6.6c-1.7,1.6-2.4,3.8-2.2,6.3c0.1,0.8,0.3,1.5,1,1.9c0.9,0.5,1.9,0.5,2.7-0.1c1.8-1.3,2.8-3.2,3.2-5.3  c0.3-1.7,0.7-3.3,1.5-4.9c4.5-8.7,9.8-16.8,16.6-23.9c9.4-9.8,20.8-16,34.2-18.2c9.6-1.6,19.3-2.2,30.9-2.3  c1.9-0.1,5.7-0.3,9.6-0.5c5.5-0.3,5.9,0.1,4.1,5.1c-8.3,22.6-16.5,45.1-24.9,67.6c-3.1,8.2-6.5,16.3-9.9,24.4  c-0.9,2.1-1.4,2.3-3.5,1.4c-4.6-2-9.2-3.7-14.1-4.6c-8.2-1.5-16.1-0.7-22.9,4.6c-10,7.8-14.1,18.3-12.2,30.9  c1.6,10.9,10.3,17.5,21.1,16.7c3.7-0.3,7-1.7,10.1-3.7c3.9-2.5,7.1-5.8,10-9.3c4-4.9,7.4-10.1,10.6-15.6c3.3-5.6,2.4-5.8,8.2-1.7  c8.3,5.8,16.4,11.9,24.6,17.8c10.2,7.4,20.7,14.3,31.9,20.1c4.4,2.3,9,4.2,13.8,5.5c5.2,1.4,10.5,2.2,15.9,1.4  c12.4-1.8,19.9-9.6,25.3-20.2c0.2-0.5,0.3-1.1,0.2-1.7C228.6,249.6,228.2,248.7,227.4,248.7z M160.5,102.8c0.2-0.6,0.3-1.1,0.5-1.6  c7.2-19.5,14.3-39.1,23.2-57.8c2.6-5.5,5.5-10.9,9.1-15.9c1.3-1.9,2.8-3.6,4.6-5.1c2.6-2.1,5.5-2.4,8.6-1c2.7,1.3,4.5,3.4,5.7,6.1  c1.5,3.4,2,7,1.8,10.6c0.2,5.4-1.1,10.7-2.7,15.7c-5.3,16.4-14.7,30-28.6,40.5c-5.4,4-11.3,7.1-17.7,9.2c-1.1,0.3-2.2,0.5-3.3,0.7  C160.8,104.4,160.2,103.6,160.5,102.8z M103.6,221.9c-3.9,8.1-8.2,15.9-13.9,22.9c-1.8,2.2-3.9,4.2-6.1,6c-5.4,4.3-14.7,3.1-19-2.4  c-3.3-4.1-4.5-8.7-4.3-13.5c0-5.6,1.5-10.5,4.5-14.8c4.7-6.9,11.4-9.8,19.7-8.7c6.6,0.9,12.4,3.6,18,6.8  C104.3,219.1,104.5,219.9,103.6,221.9z"></path>	<path fill="#FFFFFF" d="M859,133.6c-11.8-12.1-31-10.2-40.6,1.5c-1.8,2.2-3.5,4.5-5,7c-2.2,3.8-4.3,7.6-6.3,11.5  c-6.8,13.2-12.6,26.9-18.5,40.6c-0.7,1.8-1.5,3.5-2.4,5.2c-0.6,1.3-1.7,2.2-3.2,2c-4-0.5-6.9,1.3-9.7,3.9  c-15.9,14.9-31.8,29.7-47.6,44.6c-1.4,1.3-2.8,2.6-3.7,4.3c-1.2,2.2-1.1,4.4,0.3,6.5c2.7,4.1,6.3,4.7,10.2,1.7  c0.8-0.6,1.4-1.2,2.1-1.9c2.5-2.3,5-4.7,7.6-7c13.7-12.8,27.3-25.6,41-38.3c2.4-2.2,4.7-4.4,4.3-8.2c-0.2-1.9,1.2-3.2,2.8-4  c1-0.5,2.1-0.9,3.2-1.3c3.6-1.3,7.2-2.5,10.8-3.7c14.2-4.9,28.3-10.2,42-16.6c4.2-1.9,8.1-4.2,11.6-7.2c6.3-5.5,9.3-12.4,9.6-20.6  C867.4,145.8,864.5,139.3,859,133.6z M782.4,209.6c-1.1,1.3-2.2,2.6-3.5,3.8c-15.4,14.5-30.9,29-46.3,43.4c-1,0.9-2.1,1.7-3.2,2.4  c-0.4,0.3-1.1,0.3-1.4,0.4c-1.5-0.2-2.5-2-2.1-3.1c0.6-1.5,1.9-2.4,3-3.4c5-4.7,10-9.4,15-14.1c10.5-9.8,20.9-19.5,31.4-29.3  c1.3-1.2,2.6-2.3,4-3.3c1-0.7,2.3-0.4,3.1,0.5C783,207.8,783,208.8,782.4,209.6z M854.1,142.7c1.1-0.9,2-2.7,3.8-1.7  c1.5,0.9,1.1,2.7,1.1,4.2c0,5-2.8,9-6.3,12.6c-2.8,3-6.1,5.5-9.6,7.7c-8.6,5.2-17.3,10.4-26.2,15.1c-0.3,0.2-0.7,0.4-1,0.7  c-1.4,1.1-3.5,2.3-4.1,1.8c-0.2-0.7,2.1-2.6,2.9-3.6c1.3-1.4,2.9-2.7,4.3-4c11.4-10.7,22.8-21.3,34.3-32  C853.5,143.3,853.8,143,854.1,142.7z M804.3,175.2c-0.7,1.4-1.1,2.1-2.4,2.6c-0.7,0.3-0.5-1.5,0.8-3.7c2.2-4.9,4.4-9.7,6.6-14.6  c3.2-7.1,6.9-14,11.5-20.4c4.5-6.1,10.6-9.1,18.2-8.8c0.5,0,1.1,0.1,1.4,0.7c0,1.2-1,1.4-1.8,1.9c-6.4,3.4-11.1,8.5-15.2,14.4  c-5,7.2-10,14.4-15.1,21.5C806.9,170.9,805.6,172.8,804.3,175.2z M808.5,178.2c-0.5-0.4,0-1,0.3-1.4c6.8-11,14.2-21.6,21.9-32  c4.1-5.6,9.7-9.1,16.5-10.4c1.7-0.3,3.4-0.4,5,0.5c1.1,0.6,1.4,2,0.6,2.9c-0.4,0.4-0.8,0.8-1.2,1.2c-12.8,12-25.6,23.9-38.4,35.9  c-1.1,1-2.1,1.9-3.3,2.9C809.6,178.2,809,178.7,808.5,178.2z M852,173.3c-7.3,4.5-15.3,7.8-23.3,10.9c-3.9,1.5-7.9,2.8-11.9,4.2  c-0.7,0.2-1.4,0.6-2.2,0.1c-0.4-0.8,0.7-1.2,1.3-1.6c8.8-5.2,17.7-10.4,26.5-15.7c6.8-4,12.9-8.9,17.5-15.4c0.4-0.6,1-1.1,1.4-1.7  c1.3,0.5,1.2,1.5,1.1,2.4C861.7,163.8,858.3,169.4,852,173.3z"></path>	<path fill="#FFFFFF" d="M115.3,313.4c-1-0.8-2.1-1.4-3.5-1.9c-1.4-0.4-2.9-0.7-4.5-0.7H96.2v29.6h3.3V330h7.2  c1.6,0,3.1-0.2,4.5-0.6c1.4-0.4,2.6-1,3.7-1.8c1.1-0.8,1.9-1.8,2.5-3c0.6-1.2,0.9-2.6,0.9-4.2c0-1.5-0.3-2.8-0.8-3.9  C117,315.1,116.3,314.2,115.3,313.4z M114.4,323.1c-0.4,0.8-0.9,1.5-1.7,2.1c-0.7,0.6-1.6,1-2.6,1.3c-1,0.3-2.1,0.5-3.3,0.5h-7.3  v-13h7.5c2.4,0,4.3,0.5,5.8,1.6c1.5,1.1,2.2,2.7,2.2,4.8C115,321.4,114.8,322.3,114.4,323.1z"></path>	<path fill="#FFFFFF" d="M140.8,310.6l-13.5,29.8h3.4l3.5-7.8h16.1l3.5,7.8h3.6L144,310.6H140.8z M135.6,329.6l6.8-15.1l6.7,15.1  H135.6z"></path>	<path fill="#FFFFFF" d="M181.7,324c-1.6-0.3-3-0.7-4-1.1c-1-0.4-1.9-0.8-2.4-1.3c-0.6-0.5-1-1-1.2-1.5c-0.2-0.6-0.3-1.2-0.3-1.9  c0-0.7,0.1-1.3,0.4-1.9c0.3-0.6,0.7-1.1,1.3-1.5c0.5-0.4,1.2-0.8,2-1c0.8-0.3,1.6-0.4,2.6-0.4c1.5,0,3,0.3,4.4,0.8  c1.4,0.5,2.8,1.3,4.2,2.5l1.9-2.6c-1.5-1.2-3.1-2.1-4.7-2.7c-1.6-0.6-3.5-0.9-5.7-0.9c-1.4,0-2.7,0.2-3.9,0.6  c-1.2,0.4-2.2,1-3.1,1.7c-0.9,0.7-1.5,1.6-2,2.6c-0.5,1-0.7,2.1-0.7,3.3c0,1.2,0.2,2.3,0.6,3.2c0.4,0.9,1,1.7,1.8,2.4  c0.8,0.7,1.9,1.3,3.1,1.7c1.3,0.5,2.7,0.9,4.4,1.3c1.6,0.3,2.8,0.7,3.8,1.1c1,0.4,1.8,0.8,2.3,1.2c0.6,0.5,1,1,1.2,1.5  c0.2,0.5,0.3,1.2,0.3,1.9c0,1.5-0.6,2.7-1.8,3.7s-2.8,1.4-4.8,1.4c-2.1,0-3.9-0.3-5.4-1c-1.6-0.7-3.1-1.7-4.7-3.1l-2.1,2.5  c1.8,1.6,3.6,2.8,5.6,3.5c2,0.8,4.1,1.1,6.5,1.1c1.5,0,2.8-0.2,4.1-0.6c1.2-0.4,2.3-1,3.2-1.7c0.9-0.7,1.6-1.6,2.1-2.7  c0.5-1,0.8-2.2,0.8-3.5c0-2.3-0.8-4.1-2.3-5.4C187.4,325.7,185,324.7,181.7,324z"></path>	<polygon fill="#FFFFFF" points="203.9,313.9 213.8,313.9 213.8,340.4 217.1,340.4 217.1,313.9 227,313.9 227,310.8 203.9,310.8    "></polygon>	<polygon fill="#FFFFFF" points="245.1,327 261.2,327 261.2,324 245.1,324 245.1,313.9 263.1,313.9 263.1,310.8 241.8,310.8   241.8,340.4 263.4,340.4 263.4,337.4 245.1,337.4  "></polygon>	<polygon fill="#FFFFFF" points="281.8,310.8 278.5,310.8 278.5,340.4 298.5,340.4 298.5,337.3 281.8,337.3  "></polygon>	<polygon fill="#FFFFFF" points="316.4,327 332.6,327 332.6,324 316.4,324 316.4,313.9 334.5,313.9 334.5,310.8 313.1,310.8   313.1,340.4 334.7,340.4 334.7,337.4 316.4,337.4  "></polygon>	<path fill="#FFFFFF" d="M368.4,327.3c1-0.5,1.8-1.1,2.6-1.8c0.7-0.7,1.3-1.6,1.7-2.5c0.4-1,0.6-2.1,0.6-3.3c0-1.3-0.3-2.5-0.8-3.6  c-0.5-1.1-1.2-2-2.2-2.8c-0.9-0.8-2-1.4-3.4-1.8c-1.3-0.4-2.8-0.6-4.4-0.6h-12.7v29.6h3.3v-11.5h8.4l8.6,11.5h4.1l-9.1-12.1  C366.4,328.1,367.4,327.8,368.4,327.3z M353.2,326v-12h9.1c2.4,0,4.3,0.5,5.6,1.5c1.3,1,2,2.5,2,4.3c0,1-0.2,1.8-0.6,2.6  c-0.4,0.8-0.9,1.4-1.6,1.9c-0.7,0.5-1.5,0.9-2.4,1.2c-0.9,0.3-1.9,0.4-3,0.4H353.2z"></path>	<polygon fill="#FFFFFF" points="389.5,308.2 392.1,308.2 396.9,303.7 393.5,302.1  "></polygon>	<rect x="389.1" y="310.8" fill="#FFFFFF" width="3.3" height="29.6"></rect>	<path fill="#FFFFFF" d="M420.5,310.6L407,340.4h3.4l3.5-7.8H430l3.5,7.8h3.6l-13.5-29.8H420.5z M415.2,329.6l6.8-15.1l6.7,15.1  H415.2z"></path>	<path fill="#FFFFFF" d="M483.4,310.6l-13.5,29.8h3.4l3.5-7.8h16.1l3.5,7.8h3.6l-13.5-29.8H483.4z M478.2,329.6l6.8-15.1l6.7,15.1  H478.2z"></path>	<path fill="#FFFFFF" d="M532.8,327.3c1-0.5,1.8-1.1,2.6-1.8c0.7-0.7,1.3-1.6,1.7-2.5c0.4-1,0.6-2.1,0.6-3.3c0-1.3-0.3-2.5-0.8-3.6  c-0.5-1.1-1.2-2-2.2-2.8c-0.9-0.8-2-1.4-3.4-1.8c-1.3-0.4-2.8-0.6-4.4-0.6h-12.7v29.6h3.3v-11.5h8.4l8.6,11.5h4.1l-9.1-12.1  C530.8,328.1,531.9,327.8,532.8,327.3z M517.6,326v-12h9.2c2.4,0,4.3,0.5,5.6,1.5c1.3,1,2,2.5,2,4.3c0,1-0.2,1.8-0.6,2.6  c-0.4,0.8-0.9,1.4-1.6,1.9c-0.7,0.5-1.5,0.9-2.4,1.2c-0.9,0.3-1.9,0.4-3,0.4H517.6z"></path>	<polygon fill="#FFFFFF" points="550.8,313.9 560.8,313.9 560.8,340.4 564.1,340.4 564.1,313.9 574,313.9 574,310.8 550.8,310.8    "></polygon>	<polygon fill="#FFFFFF" points="592.1,327 608.2,327 608.2,324 592.1,324 592.1,313.9 610.1,313.9 610.1,310.8 588.8,310.8   588.8,340.4 610.3,340.4 610.3,337.4 592.1,337.4  "></polygon>	<path fill="#FFFFFF" d="M636.1,324c-1.6-0.3-3-0.7-4-1.1c-1-0.4-1.9-0.8-2.4-1.3c-0.6-0.5-1-1-1.2-1.5c-0.2-0.6-0.3-1.2-0.3-1.9  c0-0.7,0.1-1.3,0.4-1.9c0.3-0.6,0.7-1.1,1.3-1.5c0.5-0.4,1.2-0.8,2-1c0.8-0.3,1.6-0.4,2.6-0.4c1.5,0,3,0.3,4.4,0.8  c1.4,0.5,2.8,1.3,4.2,2.5l1.9-2.6c-1.5-1.2-3.1-2.1-4.7-2.7c-1.6-0.6-3.5-0.9-5.7-0.9c-1.4,0-2.7,0.2-3.9,0.6  c-1.2,0.4-2.2,1-3.1,1.7c-0.9,0.7-1.6,1.6-2,2.6c-0.5,1-0.7,2.1-0.7,3.3c0,1.2,0.2,2.3,0.6,3.2c0.4,0.9,1,1.7,1.8,2.4  c0.8,0.7,1.9,1.3,3.1,1.7c1.3,0.5,2.7,0.9,4.4,1.3c1.6,0.3,2.8,0.7,3.8,1.1c1,0.4,1.8,0.8,2.3,1.2c0.6,0.5,1,1,1.2,1.5  c0.2,0.5,0.3,1.2,0.3,1.9c0,1.5-0.6,2.7-1.8,3.7c-1.2,0.9-2.8,1.4-4.8,1.4c-2.1,0-3.9-0.3-5.4-1c-1.6-0.7-3.1-1.7-4.7-3.1l-2.1,2.5  c1.8,1.6,3.6,2.8,5.6,3.5c2,0.8,4.1,1.1,6.5,1.1c1.5,0,2.8-0.2,4.1-0.6c1.2-0.4,2.3-1,3.2-1.7c0.9-0.7,1.6-1.6,2.1-2.7  c0.5-1,0.7-2.2,0.7-3.5c0-2.3-0.8-4.1-2.3-5.4C641.8,325.7,639.4,324.7,636.1,324z"></path>	<path fill="#FFFFFF" d="M671.3,310.6l-13.5,29.8h3.4l3.5-7.8h16.1l3.5,7.8h3.6l-13.5-29.8H671.3z M666,329.6l6.8-15.1l6.7,15.1H666  z"></path>	<polygon fill="#FFFFFF" points="723.9,334.5 705.3,310.8 702.1,310.8 702.1,340.4 705.4,340.4 705.4,316.2 724.5,340.4   727.1,340.4 727.1,310.8 723.9,310.8  "></polygon>	<path fill="#FFFFFF" d="M754.9,310.6l-13.5,29.8h3.4l3.5-7.8h16.1l3.5,7.8h3.6L758,310.6H754.9z M749.6,329.6l6.8-15.1l6.7,15.1  H749.6z"></path>	<polygon fill="#FFFFFF" points="789.1,310.8 785.8,310.8 785.8,340.4 805.7,340.4 805.7,337.3 789.1,337.3  "></polygon></g></svg>