<?xml version="1.0" encoding="iso-8859-1"?>
<!-- Generator: Adobe Illustrator 19.0.0, SVG Export Plug-In . SVG Version: 6.00 Build 0)  -->
<svg version="1.1" id="Layer_1" xmlns="http://www.w3.org/2000/svg" xmlns:xlink="http://www.w3.org/1999/xlink" x="0px" y="0px"
	 viewBox="0 0 511.997 511.997" style="enable-background:new 0 0 511.997 511.997;" xml:space="preserve">
<path d="M163.42,104.581c-0.871,0-1.756-0.092-2.614-0.267c-0.858-0.174-1.702-0.429-2.506-0.764
	c-0.804-0.335-1.595-0.751-2.319-1.233c-0.737-0.483-1.421-1.045-2.037-1.662c-0.617-0.617-1.179-1.312-1.662-2.037
	s-0.898-1.515-1.233-2.319s-0.59-1.647-0.764-2.506c-0.174-0.87-0.268-1.742-0.268-2.614c0-0.883,0.094-1.756,0.268-2.627
	c0.174-0.858,0.429-1.689,0.764-2.505c0.335-0.806,0.751-1.583,1.233-2.319c0.483-0.724,1.045-1.421,1.662-2.037
	c0.617-0.618,1.3-1.181,2.037-1.662c0.724-0.483,1.515-0.898,2.319-1.233s1.649-0.59,2.506-0.764c1.729-0.348,3.512-0.348,5.241,0
	c0.858,0.174,1.702,0.429,2.506,0.764s1.582,0.751,2.319,1.233c0.724,0.481,1.421,1.044,2.037,1.662
	c0.617,0.617,1.179,1.312,1.662,2.037c0.483,0.737,0.898,1.515,1.233,2.319c0.335,0.816,0.59,1.647,0.764,2.505
	c0.174,0.871,0.268,1.744,0.268,2.627c0,0.871-0.094,1.744-0.268,2.614c-0.174,0.859-0.429,1.704-0.764,2.506
	c-0.335,0.806-0.751,1.595-1.233,2.319s-1.045,1.421-1.662,2.037C170.404,103.147,166.958,104.581,163.42,104.581z"/>
<path style="fill:#BBDCE3;" d="M119.511,327.055c0.929,0.056,1.864,0.092,2.808,0.092c0.996,0,1.982-0.042,2.963-0.105
	c5.997-7.208,20.563-22.465,38.541-25.589c3.108-6.227,4.867-13.245,4.867-20.677c0-25.61-20.762-46.371-46.371-46.371
	s-46.371,20.762-46.371,46.371c0,7.416,1.749,14.418,4.844,20.634C99.496,304.436,113.74,319.816,119.511,327.055z"/>
<path style="fill:#FF5E8A;" d="M170.269,300.871c-26.867,0-47.946,29.956-47.946,29.956s-19.884-29.956-47.958-29.956
	c-27.306,0-49.605,22.523-51.065,49.792c-0.822,15.406,4.144,27.131,11.141,37.749c13.982,21.215,75.112,72.29,87.971,72.29
	c13.126,0,73.71-50.889,87.786-72.29c7.011-10.668,11.964-22.343,11.138-37.749C219.878,323.394,197.579,300.871,170.269,300.871"/>
<path d="M234.494,346.997c-0.029-0.299-0.064-0.595-0.098-0.891c-0.076-0.698-0.164-1.394-0.261-2.084
	c-0.044-0.315-0.088-0.63-0.138-0.942c-0.121-0.775-0.256-1.543-0.402-2.308c-0.036-0.188-0.066-0.378-0.103-0.564
	c-0.186-0.926-0.393-1.846-0.617-2.757c-0.071-0.294-0.151-0.583-0.227-0.874c-0.165-0.633-0.335-1.263-0.517-1.887
	c-0.101-0.344-0.202-0.689-0.308-1.032c-0.185-0.599-0.381-1.196-0.582-1.787c-0.106-0.311-0.206-0.625-0.316-0.934
	c-0.296-0.83-0.606-1.653-0.933-2.466c-0.138-0.343-0.287-0.68-0.429-1.019c-0.212-0.504-0.426-1.007-0.65-1.504
	c-0.182-0.406-0.371-0.81-0.563-1.212c-0.198-0.42-0.403-0.835-0.61-1.249c-0.21-0.421-0.421-0.843-0.641-1.26
	c-0.196-0.371-0.402-0.736-0.604-1.103c-0.458-0.832-0.934-1.653-1.427-2.461c-0.161-0.263-0.318-0.529-0.481-0.789
	c-0.311-0.496-0.633-0.984-0.957-1.472c-0.151-0.228-0.304-0.454-0.458-0.68c-0.353-0.516-0.709-1.028-1.075-1.532
	c-0.067-0.091-0.135-0.181-0.202-0.272c-1.314-1.791-2.715-3.509-4.195-5.151c-0.029-0.032-0.059-0.066-0.088-0.099
	c-6.753-7.46-15.155-13.307-24.6-16.952c31.218-22.184,51.628-58.63,51.628-99.758c0-32.965-12.919-63.877-36.379-87.041
	c-5.27-5.204-13.756-5.147-18.955,0.119c-5.2,5.267-5.147,13.754,0.119,18.955c18.318,18.089,28.407,42.227,28.407,67.968
	c0,30.736-14.61,58.11-37.233,75.593c-6.038-26.611-29.868-46.544-58.28-46.544s-52.242,19.933-58.28,46.544
	c-22.621-17.486-37.23-44.861-37.23-75.597c0-48.115,35.769-88.014,82.11-94.553v17.383c0,7.401,6.001,13.403,13.403,13.403
	c7.403,0,13.403-6.002,13.403-13.403v-63.49c0-7.401-6.001-13.403-13.403-13.403c-7.403,0-13.403,6.002-13.403,13.403v19.08
	C47.752,77.07,0,129.037,0,191.955c0,41.128,20.409,77.573,51.627,99.758c-0.001,0-0.004,0.001-0.005,0.003
	c-2.902,1.119-5.703,2.447-8.39,3.966c-0.015,0.008-0.028,0.016-0.043,0.024c-2.651,1.501-5.188,3.187-7.596,5.044
	c-0.055,0.043-0.111,0.084-0.166,0.127c-0.568,0.441-1.13,0.891-1.683,1.351c-0.066,0.055-0.13,0.11-0.196,0.165
	c-1.641,1.372-3.211,2.827-4.713,4.356c-0.121,0.123-0.243,0.245-0.363,0.369c-0.434,0.449-0.86,0.905-1.281,1.367
	c-0.168,0.184-0.332,0.369-0.497,0.554c-0.409,0.458-0.815,0.918-1.21,1.387c-0.09,0.106-0.174,0.216-0.264,0.322
	c-0.751,0.902-1.474,1.826-2.178,2.768c-0.193,0.259-0.389,0.515-0.578,0.776c-0.304,0.422-0.602,0.85-0.897,1.28
	c-0.222,0.324-0.442,0.65-0.661,0.978c-0.272,0.411-0.543,0.823-0.807,1.241c-0.249,0.395-0.489,0.797-0.732,1.2
	c-0.336,0.56-0.666,1.125-0.988,1.697c-0.296,0.528-0.59,1.056-0.873,1.592c-0.192,0.365-0.375,0.736-0.562,1.106
	c-0.235,0.468-0.466,0.938-0.69,1.411c-0.173,0.367-0.346,0.735-0.512,1.106c-0.245,0.544-0.481,1.094-0.712,1.646
	c-0.126,0.3-0.257,0.596-0.378,0.899c-0.332,0.827-0.647,1.665-0.949,2.509c-0.102,0.285-0.194,0.575-0.292,0.862
	c-0.209,0.615-0.413,1.236-0.604,1.86c-0.102,0.33-0.2,0.659-0.296,0.992c-0.186,0.639-0.361,1.283-0.528,1.929
	c-0.072,0.281-0.15,0.562-0.22,0.844c-0.224,0.915-0.433,1.838-0.619,2.768c-0.036,0.182-0.066,0.366-0.101,0.55
	c-0.147,0.771-0.284,1.545-0.405,2.325c-0.048,0.31-0.092,0.621-0.137,0.932c-0.098,0.694-0.185,1.391-0.263,2.092
	c-0.032,0.296-0.068,0.591-0.097,0.89c-0.095,0.977-0.176,1.96-0.228,2.95c-1.133,21.231,7.068,36.328,13.335,45.839
	c8.679,13.166,29.996,32.939,47.053,47.052c37.789,31.266,48.193,31.266,52.109,31.266c3.967,0,14.505,0,52.098-31.211
	c16.928-14.053,38.136-33.814,46.887-47.12c6.263-9.528,14.458-24.647,13.323-45.827
	C234.668,348.956,234.588,347.974,234.494,346.997z M122.319,247.81c18.179,0,32.968,14.789,32.968,32.968
	c0,3.274-0.507,6.426-1.401,9.412c-0.001,0-0.003,0.001-0.004,0.001c-5.679,1.859-10.941,4.521-15.693,7.555
	c-0.039,0.024-0.078,0.05-0.117,0.074c-1.875,1.201-3.67,2.454-5.379,3.738c-0.184,0.138-0.37,0.275-0.552,0.414
	c-0.457,0.348-0.906,0.698-1.351,1.051c-0.311,0.245-0.617,0.492-0.921,0.738c-0.369,0.3-0.74,0.598-1.099,0.897
	c-0.626,0.521-1.234,1.044-1.83,1.565c-0.243,0.212-0.474,0.422-0.712,0.634c-0.456,0.406-0.903,0.811-1.34,1.214
	c-0.201,0.186-0.402,0.37-0.599,0.556c-0.613,0.572-1.212,1.143-1.784,1.704c-0.563-0.566-1.154-1.139-1.757-1.716
	c-0.197-0.189-0.398-0.377-0.598-0.566c-0.425-0.401-0.86-0.802-1.304-1.204c-0.241-0.22-0.479-0.437-0.726-0.657
	c-0.596-0.531-1.205-1.062-1.831-1.591c-0.343-0.291-0.702-0.58-1.055-0.87c-0.32-0.263-0.641-0.525-0.968-0.785
	c-0.433-0.346-0.87-0.688-1.315-1.031c-0.222-0.172-0.449-0.34-0.676-0.511c-1.687-1.272-3.462-2.51-5.322-3.698
	c-0.072-0.047-0.145-0.092-0.217-0.139c-4.804-3.047-10.164-5.702-16.01-7.529c-0.007-0.001-0.013-0.004-0.019-0.007
	c-0.865-2.939-1.352-6.038-1.352-9.254C89.353,262.599,104.142,247.81,122.319,247.81z M199.001,381.046
	c-5.45,8.287-21.205,24.044-39.206,39.211c-19.427,16.369-32.453,24.62-37.386,26.707c-14.067-5.674-65-48.063-76.775-65.928
	c-6.829-10.363-9.506-19.235-8.949-29.659c1.095-20.46,17.999-37.106,37.681-37.106c16.931,0,32.317,17.328,36.791,23.966
	c2.439,3.677,6.545,5.9,10.957,5.972c4.434,0.056,8.589-2.047,11.149-5.64c4.814-6.759,20.849-24.299,37.006-24.299
	c19.684,0,36.588,16.646,37.683,37.107C208.51,361.779,205.832,370.652,199.001,381.046z"/>
<path style="fill:#BBDCE3;" d="M386.873,327.055c0.929,0.056,1.864,0.092,2.808,0.092c0.996,0,1.982-0.042,2.963-0.105
	c5.997-7.208,20.563-22.465,38.541-25.589c3.108-6.227,4.867-13.245,4.867-20.677c0-25.61-20.762-46.371-46.371-46.371
	c-25.61,0-46.371,20.762-46.371,46.371c0,7.416,1.749,14.418,4.844,20.634C366.858,304.436,381.101,319.816,386.873,327.055z"/>
<path style="fill:#FF5E8A;" d="M437.631,300.871c-26.867,0-47.946,29.956-47.946,29.956s-19.884-29.956-47.958-29.956
	c-27.306,0-49.605,22.523-51.065,49.792c-0.822,15.406,4.144,27.131,11.141,37.749c13.982,21.215,75.112,72.29,87.971,72.29
	c13.126,0,73.71-50.889,87.786-72.29c7.011-10.668,11.964-22.343,11.138-37.749C487.239,323.394,464.94,300.871,437.631,300.871"/>
<path d="M418.41,96.298c0.335,0.806,0.751,1.595,1.233,2.319s1.045,1.421,1.662,2.037c0.617,0.617,1.3,1.179,2.037,1.662
	c0.724,0.483,1.515,0.898,2.319,1.233c0.804,0.335,1.649,0.59,2.506,0.764c0.858,0.174,1.742,0.267,2.614,0.267
	c3.538,0,6.983-1.433,9.489-3.927c0.617-0.617,1.18-1.312,1.662-2.037c0.483-0.725,0.898-1.515,1.233-2.319
	c0.335-0.804,0.59-1.647,0.764-2.506c0.174-0.87,0.268-1.742,0.268-2.614c0-0.883-0.094-1.756-0.268-2.627
	c-0.174-0.858-0.429-1.689-0.764-2.505c-0.335-0.806-0.751-1.583-1.233-2.319c-0.482-0.724-1.045-1.421-1.662-2.037
	c-0.617-0.618-1.314-1.181-2.037-1.662c-0.737-0.483-1.515-0.898-2.319-1.233s-1.649-0.59-2.506-0.764
	c-1.729-0.348-3.512-0.348-5.241,0c-0.858,0.174-1.702,0.429-2.506,0.764s-1.595,0.751-2.319,1.233
	c-0.737,0.481-1.421,1.044-2.037,1.662c-0.617,0.617-1.179,1.312-1.662,2.037c-0.482,0.737-0.898,1.515-1.233,2.319
	c-0.335,0.816-0.59,1.647-0.764,2.505c-0.174,0.871-0.268,1.744-0.268,2.627c0,0.871,0.094,1.744,0.268,2.614
	C417.821,94.651,418.075,95.494,418.41,96.298z"/>
<path d="M501.854,346.997c-0.029-0.299-0.064-0.595-0.098-0.891c-0.076-0.698-0.164-1.394-0.261-2.084
	c-0.044-0.315-0.089-0.63-0.138-0.942c-0.121-0.775-0.256-1.543-0.402-2.308c-0.036-0.188-0.066-0.378-0.103-0.564
	c-0.186-0.926-0.393-1.846-0.617-2.757c-0.071-0.294-0.151-0.583-0.227-0.874c-0.165-0.633-0.335-1.263-0.517-1.887
	c-0.101-0.344-0.202-0.689-0.308-1.032c-0.185-0.599-0.381-1.196-0.582-1.787c-0.106-0.311-0.206-0.625-0.316-0.934
	c-0.296-0.83-0.606-1.653-0.933-2.466c-0.138-0.343-0.287-0.68-0.429-1.019c-0.212-0.504-0.426-1.007-0.65-1.504
	c-0.182-0.406-0.371-0.81-0.563-1.212c-0.198-0.42-0.403-0.835-0.61-1.249c-0.21-0.421-0.421-0.843-0.641-1.26
	c-0.196-0.371-0.402-0.736-0.604-1.103c-0.458-0.832-0.934-1.653-1.427-2.461c-0.161-0.263-0.318-0.529-0.481-0.789
	c-0.311-0.496-0.633-0.984-0.957-1.472c-0.151-0.228-0.304-0.454-0.458-0.68c-0.353-0.516-0.709-1.028-1.075-1.532
	c-0.067-0.091-0.135-0.181-0.202-0.272c-1.314-1.791-2.716-3.509-4.195-5.151c-0.03-0.032-0.059-0.066-0.088-0.099
	c-6.753-7.46-15.155-13.307-24.6-16.952c31.218-22.184,51.628-58.63,51.628-99.758c0-32.965-12.919-63.877-36.379-87.041
	c-5.27-5.204-13.756-5.147-18.955,0.119c-5.2,5.267-5.147,13.754,0.119,18.955c18.318,18.089,28.407,42.227,28.407,67.968
	c0,30.736-14.61,58.11-37.233,75.593c-6.038-26.611-29.868-46.544-58.28-46.544s-52.242,19.933-58.28,46.544
	c-22.623-17.482-37.233-44.857-37.233-75.593c0-48.115,35.769-88.014,82.11-94.553v17.379c0,7.401,6.001,13.403,13.403,13.403
	c7.403,0,13.403-6.002,13.403-13.403v-63.49c0-7.401-6.001-13.403-13.403-13.403c-7.403,0-13.403,6.002-13.403,13.403v19.08
	c-61.164,6.698-108.916,58.665-108.916,121.581c0,41.128,20.409,77.573,51.627,99.758c-0.001,0-0.004,0.001-0.005,0.003
	c-2.902,1.119-5.703,2.447-8.39,3.966c-0.015,0.008-0.028,0.016-0.043,0.024c-2.651,1.501-5.188,3.187-7.596,5.044
	c-0.055,0.043-0.111,0.084-0.166,0.127c-0.568,0.441-1.13,0.891-1.683,1.351c-0.066,0.055-0.13,0.11-0.196,0.165
	c-1.641,1.372-3.211,2.827-4.713,4.356c-0.121,0.123-0.243,0.245-0.363,0.369c-0.434,0.449-0.861,0.905-1.281,1.367
	c-0.168,0.184-0.332,0.369-0.497,0.554c-0.409,0.458-0.815,0.918-1.21,1.387c-0.09,0.106-0.174,0.216-0.264,0.322
	c-0.751,0.902-1.474,1.826-2.178,2.768c-0.193,0.259-0.389,0.515-0.578,0.776c-0.304,0.422-0.602,0.85-0.897,1.28
	c-0.223,0.324-0.442,0.65-0.661,0.978c-0.272,0.411-0.543,0.823-0.807,1.241c-0.249,0.395-0.489,0.797-0.732,1.2
	c-0.336,0.56-0.666,1.125-0.988,1.697c-0.296,0.528-0.59,1.056-0.873,1.592c-0.192,0.365-0.375,0.736-0.562,1.106
	c-0.235,0.468-0.466,0.938-0.69,1.411c-0.173,0.367-0.346,0.735-0.512,1.106c-0.245,0.544-0.481,1.094-0.712,1.646
	c-0.126,0.3-0.257,0.596-0.378,0.899c-0.332,0.827-0.647,1.665-0.949,2.509c-0.102,0.285-0.194,0.575-0.292,0.862
	c-0.209,0.615-0.413,1.236-0.604,1.86c-0.102,0.33-0.2,0.659-0.296,0.992c-0.186,0.639-0.361,1.283-0.528,1.929
	c-0.072,0.281-0.15,0.562-0.22,0.844c-0.224,0.915-0.433,1.838-0.619,2.768c-0.036,0.182-0.066,0.366-0.101,0.55
	c-0.147,0.771-0.284,1.545-0.405,2.325c-0.048,0.31-0.092,0.621-0.137,0.932c-0.098,0.694-0.185,1.391-0.263,2.092
	c-0.032,0.296-0.068,0.591-0.097,0.89c-0.095,0.977-0.176,1.96-0.228,2.95c-1.133,21.231,7.068,36.328,13.335,45.839
	c8.679,13.166,29.996,32.939,47.053,47.052c37.789,31.266,48.193,31.266,52.109,31.266c3.967,0,14.505,0,52.098-31.211
	c16.928-14.053,38.136-33.814,46.887-47.12c6.263-9.528,14.458-24.647,13.323-45.827
	C502.029,348.956,501.949,347.974,501.854,346.997z M389.681,247.81c18.179,0,32.968,14.789,32.968,32.968
	c0,3.274-0.507,6.426-1.401,9.412c-0.001,0-0.003,0.001-0.004,0.001c-5.679,1.859-10.941,4.521-15.693,7.555
	c-0.039,0.024-0.078,0.05-0.117,0.074c-1.875,1.201-3.67,2.454-5.379,3.738c-0.184,0.138-0.37,0.275-0.552,0.414
	c-0.457,0.348-0.906,0.698-1.351,1.051c-0.311,0.245-0.617,0.492-0.921,0.738c-0.369,0.3-0.74,0.598-1.099,0.897
	c-0.626,0.521-1.234,1.044-1.83,1.565c-0.243,0.212-0.474,0.422-0.712,0.634c-0.456,0.406-0.903,0.811-1.34,1.214
	c-0.201,0.186-0.402,0.37-0.599,0.556c-0.613,0.572-1.212,1.143-1.784,1.704c-0.563-0.566-1.154-1.139-1.757-1.716
	c-0.197-0.189-0.398-0.377-0.598-0.566c-0.425-0.401-0.86-0.802-1.304-1.204c-0.241-0.22-0.478-0.437-0.726-0.657
	c-0.596-0.531-1.205-1.062-1.831-1.591c-0.343-0.291-0.702-0.58-1.055-0.87c-0.32-0.263-0.641-0.525-0.968-0.785
	c-0.433-0.346-0.87-0.688-1.315-1.031c-0.222-0.172-0.449-0.34-0.676-0.511c-1.687-1.272-3.462-2.51-5.322-3.698
	c-0.072-0.047-0.145-0.092-0.217-0.139c-4.804-3.047-10.164-5.702-16.01-7.529c-0.007-0.001-0.013-0.004-0.019-0.007
	c-0.865-2.939-1.352-6.038-1.352-9.254C356.713,262.599,371.503,247.81,389.681,247.81z M466.362,381.046
	c-5.45,8.287-21.205,24.044-39.206,39.211c-19.427,16.369-32.453,24.62-37.386,26.707c-14.067-5.674-65-48.063-76.775-65.928
	c-6.829-10.363-9.506-19.235-8.949-29.659c1.095-20.46,17.999-37.106,37.681-37.106c16.931,0,32.317,17.328,36.791,23.966
	c2.439,3.677,6.545,5.9,10.957,5.972c4.434,0.056,8.589-2.047,11.149-5.64c4.814-6.759,20.849-24.299,37.006-24.299
	c19.684,0,36.588,16.646,37.683,37.107C475.872,361.779,473.194,370.652,466.362,381.046z"/>
<g>
</g>
<g>
</g>
<g>
</g>
<g>
</g>
<g>
</g>
<g>
</g>
<g>
</g>
<g>
</g>
<g>
</g>
<g>
</g>
<g>
</g>
<g>
</g>
<g>
</g>
<g>
</g>
<g>
</g>
</svg>
