<?xml version="1.0"?><svg fill="#000000" xmlns="http://www.w3.org/2000/svg"  viewBox="0 0 30 30" width="30px" height="30px">    <path d="M 24 3 A 3 3 0 0 0 21 6 A 3 3 0 0 0 21.375 7.4472656 L 15.550781 14 L 8.8261719 14 A 3 3 0 0 0 6 12 A 3 3 0 0 0 3 15 A 3 3 0 0 0 6 18 A 3 3 0 0 0 8.8242188 16 L 15.550781 16 L 21.373047 22.550781 A 3 3 0 0 0 21 24 A 3 3 0 0 0 24 27 A 3 3 0 0 0 27 24 A 3 3 0 0 0 24 21 A 3 3 0 0 0 22.869141 21.222656 L 17.337891 15 L 22.869141 8.7773438 A 3 3 0 0 0 24 9 A 3 3 0 0 0 27 6 A 3 3 0 0 0 24 3 z"/></svg>