<?xml version="1.0" encoding="iso-8859-1"?>
<!-- Generator: Adobe Illustrator 19.0.0, SVG Export Plug-In . SVG Version: 6.00 Build 0)  -->
<svg version="1.1" id="Layer_1" xmlns="http://www.w3.org/2000/svg" xmlns:xlink="http://www.w3.org/1999/xlink" x="0px" y="0px"
	 viewBox="0 0 512 512" style="enable-background:new 0 0 512 512;" xml:space="preserve">
<circle style="fill:#C1321F;" cx="256" cy="256" r="256"/>
<path style="fill:#A82116;" d="M334.51,499.717C437.484,466.57,512,369.995,512,256c0-2.893-0.066-5.768-0.16-8.637L376.37,112.247
	c0,0-6.251-4.665-16.163-8.113c-9.912-3.448-107.079,10.505-107.079,10.505s-50.281-3.448-77.002-9.05
	c-26.721-5.603-46.114,5.172-43.098,44.822c3.017,39.65,23.273,132.741,85.764,198.249l0.252,35.052L334.51,499.717z"/>
<path style="fill:#F4E3C3;" d="M253.15,361.503c-0.138-2.862,2.069-5.277,4.915-5.43l0,0c2.86-0.138,5.275,2.069,5.429,4.913l0,0
	c0.138,2.862-2.069,5.292-4.913,5.43l0,0c-0.086,0-0.174,0-0.259,0l0,0C255.581,366.416,253.288,364.261,253.15,361.503z
	 M241.754,364.537c-2.758-0.743-4.377-3.586-3.636-6.346l0,0c0.757-2.758,3.586-4.377,6.344-3.636l0,0
	c2.76,0.757,4.396,3.586,3.637,6.344l0,0c-0.621,2.31-2.707,3.827-4.984,3.827l0,0C242.669,364.725,242.221,364.675,241.754,364.537
	z M268.459,359.915c-0.981-2.689,0.414-5.653,3.086-6.637h0.017c2.674-0.965,5.639,0.414,6.622,3.103l0,0
	c0.965,2.691-0.414,5.654-3.105,6.62l0,0c-0.586,0.226-1.172,0.312-1.758,0.312l0,0C271.198,363.313,269.217,362.02,268.459,359.915
	z M226.413,358.124c-2.482-1.398-3.362-4.553-1.965-7.034l0,0c1.412-2.5,4.567-3.379,7.051-1.967l0,0
	c2.481,1.414,3.36,4.568,1.965,7.051l0,0c-0.965,1.674-2.707,2.622-4.517,2.622l0,0C228.085,358.797,227.206,358.59,226.413,358.124
	z M282.696,354.02c-1.567-2.396-0.879-5.603,1.519-7.137l0,0c2.396-1.569,5.603-0.879,7.152,1.517l0,0
	c1.552,2.398,0.862,5.603-1.534,7.154l0,0c-0.862,0.55-1.845,0.826-2.81,0.826l0,0C285.336,356.381,283.681,355.556,282.696,354.02z
	 M213.016,348.798c0,0,0,0,0.019,0l0,0c-2.207-1.829-2.517-5.086-0.674-7.277l0,0c1.81-2.205,5.068-2.498,7.277-0.672v-0.017
	c2.205,1.827,2.498,5.086,0.672,7.29l0,0c-1.034,1.224-2.5,1.862-3.984,1.862l0,0C215.156,349.987,213.983,349.608,213.016,348.798z
	 M295.352,345.229c-1.914-2.12-1.76-5.379,0.362-7.309l0,0c2.119-1.912,5.396-1.758,7.308,0.362l0,0
	c1.914,2.12,1.76,5.396-0.362,7.309l0,0c-0.981,0.898-2.224,1.345-3.465,1.345l0,0C297.781,346.936,296.386,346.35,295.352,345.229z
	 M201.38,337.711L201.38,337.711L201.38,337.711c-1.948-2.086-1.827-5.36,0.259-7.308l0,0c2.086-1.95,5.361-1.829,7.309,0.257v0.017
	c1.948,2.086,1.827,5.346-0.259,7.292l0,0c-1,0.931-2.276,1.396-3.534,1.396l0,0C203.778,339.366,202.399,338.816,201.38,337.711z
	 M306.557,334.626c-2.138-1.896-2.362-5.153-0.483-7.308l0,0c1.879-2.155,5.136-2.362,7.29-0.483l0,0
	c2.155,1.879,2.381,5.136,0.5,7.29l0,0c-1.034,1.174-2.465,1.776-3.896,1.776l0,0C308.746,335.903,307.538,335.472,306.557,334.626z
	 M191.105,325.542c0,0,0,0,0.019,0l0,0c-1.743-2.276-1.329-5.516,0.948-7.258l0,0c2.258-1.741,5.498-1.31,7.24,0.965l0.017-0.017
	c1.724,2.276,1.31,5.516-0.967,7.258l0,0c-0.931,0.724-2.034,1.069-3.136,1.069l0,0
	C193.676,327.559,192.124,326.868,191.105,325.542z M316.538,322.836c-2.312-1.688-2.829-4.929-1.138-7.24l0,0
	c1.688-2.291,4.929-2.81,7.221-1.119l0,0c2.31,1.688,2.81,4.929,1.138,7.221l0,0c-1.017,1.398-2.586,2.12-4.189,2.12l0,0
	C318.521,323.818,317.45,323.508,316.538,322.836z M181.97,312.63c-1.569-2.379-0.914-5.585,1.483-7.152l0,0
	c2.379-1.569,5.585-0.914,7.152,1.481l0,0c1.569,2.379,0.914,5.585-1.481,7.154l0,0c-0.879,0.586-1.862,0.862-2.829,0.862l0,0
	C184.608,314.975,182.953,314.146,181.97,312.63z M325.485,310.251c-2.412-1.534-3.155-4.724-1.619-7.137l0,0
	c1.517-2.413,4.705-3.138,7.12-1.62l0,0c2.412,1.517,3.155,4.706,1.619,7.137l0,0c-0.981,1.552-2.655,2.413-4.379,2.413l0,0
	C327.294,311.044,326.347,310.784,325.485,310.251z M173.728,299.201c-1.429-2.465-0.567-5.637,1.914-7.051l0,0
	c2.465-1.431,5.62-0.569,7.051,1.914l0,0c1.414,2.465,0.569,5.637-1.912,7.051l0,0c-0.812,0.465-1.689,0.688-2.569,0.688l0,0
	C176.419,301.802,174.678,300.872,173.728,299.201z M333.588,297.081c-2.517-1.381-3.413-4.517-2.034-7.016l0,0
	c1.379-2.5,4.534-3.413,7.034-2.034l0,0c2.498,1.379,3.396,4.534,2.017,7.034l0,0l0,0l0,0c-0.95,1.705-2.707,2.672-4.534,2.672l0,0
	C335.226,297.736,334.381,297.529,333.588,297.081z M166.266,285.393c-1.293-2.551-0.276-5.672,2.258-6.965l0,0
	c2.55-1.293,5.672-0.276,6.965,2.276l0,0c1.293,2.534,0.276,5.653-2.276,6.946l0,0c-0.741,0.381-1.55,0.569-2.343,0.569l0,0
	C168.988,288.218,167.179,287.185,166.266,285.393z M340.932,283.496c-2.569-1.243-3.62-4.346-2.362-6.915l0,0
	c1.258-2.567,4.361-3.62,6.915-2.362l0,0c2.567,1.258,3.636,4.346,2.379,6.915l0,0c-0.898,1.843-2.741,2.896-4.655,2.896l0,0
	C342.447,284.031,341.673,283.858,340.932,283.496z M159.473,271.257c0,0,0,0,0.017,0l0,0c-1.188-2.603-0.034-5.672,2.569-6.844l0,0
	c2.603-1.189,5.654-0.036,6.844,2.569l0,0c1.174,2.603,0.017,5.672-2.586,6.844l0,0c-0.688,0.31-1.412,0.465-2.119,0.465l0,0
	C162.23,274.289,160.353,273.153,159.473,271.257z M347.638,269.584c-2.622-1.138-3.81-4.189-2.674-6.809l0,0
	c1.155-2.62,4.206-3.81,6.827-2.655l0,0c2.605,1.138,3.81,4.189,2.655,6.809l0,0c-0.843,1.931-2.741,3.086-4.741,3.086l0,0
	C349.017,270.015,348.31,269.877,347.638,269.584z M153.319,256.862c-1.069-2.655,0.207-5.672,2.844-6.74l0,0
	c2.655-1.069,5.672,0.207,6.74,2.862l0,0c1.069,2.636-0.207,5.653-2.844,6.722l0,0c-0.638,0.259-1.293,0.381-1.948,0.381l0,0
	C156.058,260.086,154.129,258.879,153.319,256.862z M353.74,255.395c-2.674-1.05-3.984-4.051-2.931-6.706l0,0
	c1.034-2.672,4.034-3.982,6.689-2.931l0,0c2.655,1.036,3.982,4.034,2.931,6.689l0,0c-0.793,2.051-2.743,3.293-4.81,3.293l0,0
	C354.982,255.741,354.361,255.638,353.74,255.395z M147.734,242.226c-0.967-2.689,0.412-5.637,3.103-6.603l0,0
	c2.689-0.983,5.653,0.414,6.62,3.103l0,0c0.965,2.691-0.431,5.654-3.122,6.62l0,0c-0.567,0.207-1.155,0.312-1.741,0.312l0,0
	C150.475,245.657,148.492,244.346,147.734,242.226z M359.255,240.966c-2.689-0.929-4.12-3.879-3.172-6.568l0,0
	c0.931-2.707,3.879-4.137,6.57-3.206l0,0c2.705,0.95,4.12,3.898,3.189,6.585l0,0c-0.741,2.138-2.741,3.484-4.879,3.484l0,0
	C360.395,241.261,359.826,241.173,359.255,240.966z M142.698,227.418c-0.862-2.724,0.638-5.639,3.379-6.501l0,0
	c2.707-0.862,5.622,0.638,6.484,3.362l0,0c0.862,2.724-0.638,5.639-3.362,6.501l0,0c-0.517,0.155-1.052,0.241-1.569,0.241l0,0
	C145.441,231.021,143.407,229.605,142.698,227.418z M364.239,226.349c-2.741-0.845-4.275-3.724-3.431-6.447l0,0
	c0.826-2.741,3.724-4.274,6.447-3.448l0,0c2.724,0.827,4.274,3.724,3.429,6.465l0,0c-0.672,2.224-2.722,3.655-4.929,3.655l0,0
	C365.256,226.573,364.739,226.504,364.239,226.349z M138.252,212.402c-0.759-2.741,0.862-5.603,3.62-6.361l0,0
	c2.758-0.757,5.603,0.862,6.359,3.622l0,0c0.759,2.758-0.862,5.603-3.62,6.359l0,0c-0.465,0.121-0.914,0.19-1.379,0.19l0,0
	C140.974,216.212,138.888,214.695,138.252,212.402z M368.652,211.54c-2.758-0.724-4.413-3.553-3.689-6.31l0,0
	c0.724-2.758,3.551-4.413,6.31-3.689l0,0c2.758,0.724,4.413,3.551,3.689,6.308l0,0c-0.603,2.329-2.707,3.862-4.999,3.862l0,0
	C369.53,211.713,369.099,211.659,368.652,211.54z M134.408,197.213L134.408,197.213L134.408,197.213
	c-0.638-2.774,1.103-5.551,3.879-6.189l0,0c2.793-0.655,5.568,1.086,6.206,3.879v-0.017c0.638,2.793-1.103,5.566-3.879,6.206l0,0
	c-0.395,0.105-0.774,0.138-1.172,0.138l0,0C137.095,201.23,134.959,199.611,134.408,197.213z M372.462,196.56
	c-2.793-0.586-4.567-3.343-3.948-6.137l0,0c0.586-2.793,3.344-4.568,6.139-3.965l0,0c2.793,0.603,4.567,3.36,3.965,6.153l0,0
	c-0.517,2.413-2.672,4.068-5.051,4.068l0,0C373.201,196.68,372.839,196.644,372.462,196.56z M131.253,181.836
	c-0.517-2.81,1.362-5.498,4.172-5.997l0,0c2.81-0.517,5.499,1.362,5.999,4.172l0,0c0.5,2.81-1.362,5.498-4.172,5.997l0,0
	c-0.312,0.069-0.621,0.088-0.914,0.088l0,0C133.873,186.096,131.7,184.337,131.253,181.836z M375.617,181.441
	c-2.827-0.467-4.741-3.122-4.274-5.93l0,0c0.465-2.827,3.12-4.741,5.946-4.274l0,0c2.81,0.465,4.724,3.12,4.26,5.929l0,0
	c-0.414,2.536-2.605,4.346-5.086,4.346l0,0C376.186,181.51,375.892,181.476,375.617,181.441z M128.907,166.252L128.907,166.252
	L128.907,166.252c-0.343-2.827,1.689-5.413,4.517-5.741l0,0c2.844-0.326,5.415,1.689,5.741,4.536l0,0
	c0.345,2.827-1.688,5.396-4.517,5.739l0,0c-0.207,0.019-0.412,0.036-0.619,0.036l0,0
	C131.443,170.822,129.219,168.891,128.907,166.252z M377.961,166.167c-2.844-0.276-4.93-2.81-4.655-5.637l0,0
	c0.276-2.844,2.81-4.93,5.654-4.655l0,0c2.827,0.276,4.913,2.793,4.636,5.637l0,0c-0.257,2.674-2.5,4.672-5.136,4.672l0,0
	C378.289,166.183,378.134,166.183,377.961,166.167z M127.65,150.428c-0.105-2.862,2.138-5.241,4.999-5.344l0,0
	c2.843-0.105,5.239,2.136,5.344,4.998l0,0c0.086,2.844-2.138,5.241-4.999,5.327l0,0c-0.05,0.019-0.119,0.019-0.172,0.019l0,0
	C130.046,155.427,127.752,153.221,127.65,150.428z M374.082,145.601L374.082,145.601c0-2.862,2.327-5.172,5.172-5.172l0,0
	c2.862,0,5.172,2.31,5.172,5.172l0,0c0,2.843-2.31,5.172-5.172,5.172l0,0C376.41,150.773,374.082,148.444,374.082,145.601z
	 M132.717,139.998c-2.843-0.328-4.896-2.879-4.567-5.708l0,0c0,0,0,0-0.017,0l0,0c0.326-2.843,2.879-4.896,5.706-4.584l0,0
	c2.844,0.31,4.896,2.86,4.586,5.706v0.017c-0.293,2.638-2.534,4.603-5.137,4.603l0,0
	C133.098,140.031,132.908,140.016,132.717,139.998z M372.962,131.205h0.017c-0.517-2.81,1.362-5.498,4.172-6.015l0,0
	c2.812-0.5,5.499,1.362,5.999,4.189l0,0c0.517,2.81-1.362,5.499-4.172,5.997l0,0c-0.31,0.052-0.621,0.088-0.914,0.088l0,0
	C375.599,135.465,373.427,133.706,372.962,131.205z M134.871,124.671c-2.603-1.172-3.758-4.241-2.567-6.844l0,0
	c1.188-2.603,4.241-3.758,6.844-2.569l0,0c2.603,1.174,3.758,4.241,2.569,6.846l0,0c-0.862,1.896-2.741,3.034-4.706,3.034l0,0
	C136.287,125.138,135.563,124.983,134.871,124.671z M368.461,118.794c-1.586-2.381-0.948-5.585,1.431-7.171l0,0
	c2.381-1.586,5.603-0.931,7.171,1.448l0,0c1.586,2.379,0.948,5.585-1.431,7.171l0,0c-0.879,0.586-1.879,0.862-2.862,0.862l0,0
	C371.1,121.104,369.461,120.292,368.461,118.794z M253.633,119.93c-2.862-0.034-5.154-2.379-5.12-5.222l0,0
	c0.034-2.862,2.379-5.154,5.241-5.103l0,0l0,0l0,0c2.86,0.017,5.136,2.379,5.103,5.222l0,0c-0.036,2.844-2.345,5.122-5.172,5.122
	l0,0C253.666,119.949,253.65,119.949,253.633,119.93z M263.94,114.674c-0.188-2.843,1.982-5.31,4.846-5.482l0,0c0,0,0,0-0.017,0l0,0
	c2.86-0.19,5.308,1.965,5.498,4.827l0,0c0.174,2.844-1.981,5.31-4.827,5.499l0,0c-0.121,0-0.224,0-0.345,0l0,0
	C266.388,119.518,264.114,117.413,263.94,114.674z M237.859,119.156v0.017c-2.843-0.241-4.965-2.741-4.724-5.585l0,0
	c0.243-2.862,2.724-4.965,5.585-4.741l0,0l0,0l0,0c2.844,0.241,4.965,2.741,4.724,5.585l0,0c-0.224,2.707-2.482,4.741-5.154,4.741
	l0,0C238.151,119.174,237.997,119.174,237.859,119.156z M279.337,113.519c-0.345-2.827,1.672-5.413,4.498-5.758l0,0l0,0l0,0
	c2.829-0.345,5.415,1.672,5.758,4.499l0,0c0.345,2.843-1.672,5.413-4.498,5.758l0,0c-0.207,0.034-0.431,0.052-0.638,0.052l0,0
	C281.888,118.07,279.647,116.14,279.337,113.519z M222.258,117.432c-2.827-0.396-4.81-3-4.43-5.827l0,0
	c0.381-2.829,3-4.81,5.827-4.43l0,0c2.829,0.379,4.81,3,4.43,5.827l0,0c-0.362,2.586-2.586,4.465-5.12,4.465l0,0
	C222.723,117.467,222.498,117.45,222.258,117.432z M294.628,111.518c-0.45-2.81,1.481-5.465,4.291-5.913l0,0
	c2.829-0.448,5.484,1.465,5.93,4.293l0,0c0.448,2.827-1.483,5.465-4.293,5.929l0,0c-0.276,0.036-0.552,0.052-0.826,0.052l0,0
	C297.231,115.881,295.04,114.071,294.628,111.518z M206.864,115.071L206.864,115.071c-2.829-0.467-4.723-3.122-4.26-5.93l0,0
	c0.467-2.827,3.122-4.741,5.93-4.274l0,0c2.827,0.465,4.741,3.136,4.275,5.946l0,0c-0.431,2.536-2.622,4.329-5.104,4.329l0,0
	C207.432,115.14,207.139,115.121,206.864,115.071z M142.527,111.175c-1.414-2.482-0.552-5.639,1.948-7.052l0,0c0,0,0,0,0-0.017l0,0
	c2.465-1.414,5.639-0.534,7.051,1.948l0,0c1.414,2.482,0.536,5.639-1.948,7.051l0,0c-0.81,0.467-1.689,0.674-2.551,0.674l0,0
	C145.234,113.778,143.475,112.847,142.527,111.175z M309.867,109.037c-0.483-2.81,1.431-5.484,4.241-5.947l0,0c0,0,0,0,0-0.017l0,0
	c2.81-0.467,5.482,1.431,5.947,4.258l0,0c0.481,2.81-1.414,5.482-4.241,5.947l0,0c-0.295,0.052-0.569,0.069-0.862,0.069l0,0
	C312.47,113.347,310.279,111.554,309.867,109.037z M191.659,112.535L191.659,112.535c-2.827-0.465-4.741-3.12-4.274-5.929l0,0
	c0.448-2.827,3.103-4.741,5.929-4.275l0,0l0,0l0,0c2.81,0.45,4.741,3.105,4.275,5.93l0,0c-0.414,2.534-2.605,4.344-5.103,4.344l0,0
	C192.21,112.604,191.934,112.588,191.659,112.535z M359.067,111.587c-2.707-0.948-4.122-3.913-3.172-6.603l0,0
	c0.965-2.689,3.913-4.103,6.601-3.155l0,0c2.691,0.95,4.105,3.915,3.155,6.603l0,0c-0.741,2.12-2.741,3.448-4.86,3.448l0,0
	C360.205,111.88,359.636,111.795,359.067,111.587z M325.089,106.501c-0.381-2.827,1.619-5.429,4.448-5.791l0,0l0,0l0,0
	c2.827-0.379,5.429,1.619,5.791,4.448l0,0c0.379,2.843-1.619,5.429-4.448,5.81l0,0c-0.224,0.017-0.448,0.034-0.672,0.034l0,0
	C327.656,111.002,325.417,109.106,325.089,106.501z M176.661,110.433L176.661,110.433c-2.843-0.31-4.896-2.862-4.603-5.689l0,0
	c0.31-2.844,2.862-4.896,5.689-4.603l0,0c2.844,0.31,4.898,2.844,4.603,5.689l0,0c-0.293,2.655-2.534,4.62-5.136,4.62l0,0
	C177.023,110.449,176.833,110.449,176.661,110.433z M156.646,105.053c-0.19-2.862,1.981-5.31,4.827-5.482l0,0
	c2.862-0.19,5.31,1.982,5.498,4.827l0,0c0.174,2.862-1.998,5.31-4.844,5.484l0,0c-0.121,0.017-0.224,0.017-0.328,0.017l0,0
	C159.094,109.899,156.819,107.794,156.646,105.053z M340.414,104.641c-0.034-2.844,2.276-5.191,5.12-5.208l0,0
	c2.862-0.017,5.191,2.276,5.223,5.137l0,0c0.017,2.86-2.293,5.189-5.137,5.206l0,0c-0.017,0-0.017,0-0.034,0l0,0
	C342.74,109.778,340.432,107.486,340.414,104.641z"/>
<path style="fill:#FFD15D;" d="M203.421,355.635c0-14.519,11.771-26.288,26.29-26.288c14.519,0,26.29,11.769,26.29,26.288
	c0-14.519,11.771-26.288,26.29-26.288s26.29,11.769,26.29,26.288c0,25.136-52.579,55.205-52.579,55.205
	S203.421,382.188,203.421,355.635z"/>
<path style="fill:#F9B54C;" d="M256,355.635c0-14.519,11.771-26.288,26.29-26.288s26.29,11.769,26.29,26.288
	c0,25.136-52.579,55.205-52.579,55.205V355.635z"/>
<g>
</g>
<g>
</g>
<g>
</g>
<g>
</g>
<g>
</g>
<g>
</g>
<g>
</g>
<g>
</g>
<g>
</g>
<g>
</g>
<g>
</g>
<g>
</g>
<g>
</g>
<g>
</g>
<g>
</g>
</svg>
