<svg id="Capa_1" data-name="Capa 1" xmlns="http://www.w3.org/2000/svg" viewBox="0 0 1229.7 554.83">
  <defs>
    <style>
      .cls-1 {
        fill: #5f7eba;
      }

      .cls-2 {
        fill: #43649c;
      }
    </style>
  </defs>
  <title>Logo-telsur-gtd</title>
  <g>
    <path class="cls-1" d="M1079.09,380.87H999.72V539.22h0a39.62,39.62,0,1,1-79.24,0c0-.24,0-.47,0-.71V427.15l-.15.06V380.87H841V539.06h.17v.25a118.94,118.94,0,1,0,237.87,0c0-.09,0-.17,0-.25h.07Z" transform="translate(-67.15 -103.73)"/>
    <g>
      <path class="cls-1" d="M1296.85,378.06l-4.28-6.4c-6.91-10.36-16.85-17.68-29.54-21.77l-.59-.17a62.75,62.75,0,0,0-17.32-2.46,61.77,61.77,0,0,0-23.44,4.68,132.69,132.69,0,0,1-50.27,9.59h0c-38.37,0-75.63-15.61-99.7-41.75-34-36.89-42-89.53-21-137.4,21.28-48.52,66.48-78.65,118-78.65h.84c70.07.44,127.13,55.13,127.18,121.92Zm-51.77-35.46a67.73,67.73,0,0,1,18.66,2.65l.66.18a60,60,0,0,1,27.77,18L1292,225.66c0-64.25-55-116.85-122.55-117.27h-.81c-49.61,0-93.17,29.07-113.7,75.86-20.25,46.15-12.52,96.87,20.15,132.37,23.19,25.2,59.18,40.25,96.27,40.25h0a127.9,127.9,0,0,0,48.51-9.25A66.51,66.51,0,0,1,1245.08,342.6Z" transform="translate(-67.15 -103.73)"/>
      <path class="cls-1" d="M1255.87,188.52a13.47,13.47,0,0,0-13.4-13.37h-5.87v32.17a33.82,33.82,0,0,0-48.33,30.45,33.4,33.4,0,0,0,3.29,14.51h-12.8l0-28.92h12.77V204.07h-12.78V188.65s0,0,0-.06,0,0,0-.06a13.43,13.43,0,0,0-13.32-13.37h-5.92v29h-9.89a19.23,19.23,0,0,0-13.92,6.2A33.74,33.74,0,0,0,1089.82,259a24.08,24.08,0,0,0,16.63,41.51h43.38a19.28,19.28,0,0,0-19.21-19.28h-24.2v0a4.82,4.82,0,0,1,0-9.64v0h0v0l9.66,0,.66,0c.35,0,.72,0,1.07,0l.23,0c.5,0,1-.06,1.48-.11l.36-.05a33.31,33.31,0,0,0,13.6-4.62l.09-.05a34.57,34.57,0,0,0,3.46-2.42l.51-.4.4-.35c.28-.23.55-.47.82-.71l.41-.39.76-.73c.3-.3.6-.62.89-.94l.23-.22.56-.66.49-.57.38-.48.63-.79.44-.63c.17-.24.34-.46.5-.7s.27-.42.4-.63.33-.49.48-.74.22-.4.34-.6.32-.54.47-.81.18-.37.27-.53l.48-.93c.09-.19.17-.4.26-.59s.28-.6.41-.91.18-.45.27-.68l.34-.85c.09-.26.17-.53.26-.79s.18-.52.26-.78.15-.54.23-.81.17-.52.23-.79.13-.6.2-.9.12-.49.17-.73.11-.57.16-.85.1-.54.14-.81.06-.49.09-.74.09-.63.13-1l.06-.83c0-.29.06-.59.07-.88s0-.58,0-.86,0-.58,0-.88h0V223.36h9.64l0,34.72v.13a13.43,13.43,0,0,0,13.33,13.37h18.76V252.29a33.86,33.86,0,0,0,45,15.93v3.34h19.27V188.65s0-.05,0-.07S1255.87,188.54,1255.87,188.52Zm-139.78,34.83a14.47,14.47,0,0,1,14.46,14.47,14,14,0,0,1-.26,2.69l0,.23a14.47,14.47,0,0,1-14.16,11.54h0a14.47,14.47,0,0,1,0-28.93ZM1222,252.29a14.47,14.47,0,1,1,14.46-14.47A14.47,14.47,0,0,1,1222,252.29Z" transform="translate(-67.15 -103.73)"/>
    </g>
    <path class="cls-1" d="M848.13,380.87h-144a88.42,88.42,0,0,0,0,176.83h47.52c.12,0,.22,0,.34,0A10.66,10.66,0,1,1,752,579h-149V498.89l0-181.67c0-.09,0-.17,0-.26s0-.17,0-.26a55.22,55.22,0,0,0-54.78-55l-.45,0-.45,0H523.94v341.2c0,.08,0,.17,0,.25s0,.18,0,.26a55.22,55.22,0,0,0,54.78,55c.16,0,.3,0,.46,0l.45,0h23.43v0H751.25c.52,0,1,0,1.58,0a88.36,88.36,0,0,0,0-176.71l-.42,0h-47c-.12,0-.22,0-.34,0a10.66,10.66,0,1,1,0-21.31h0v0h87.1v0h56Z" transform="translate(-67.15 -103.73)"/>
    <path class="cls-2" d="M682.36,658.32H602.94V579.1h0a79.32,79.32,0,0,1,79.42,79.22Z" transform="translate(-67.15 -103.73)"/>
    <path class="cls-1" d="M1203.83,381h-.42v0c-.47,0-1,0-1.43,0a83.62,83.62,0,0,0-83.63,83.63c0,.24,0,.47,0,.71V579.08h-39.52V498.81l0-117.89H999.72V602.86c0,.08,0,.17,0,.26s0,.17,0,.26a55.23,55.23,0,0,0,54.78,55l.46,0,.45,0h142.26V488.19a26.71,26.71,0,0,1,44.84-19.79l53.79-53.35C1272.84,394,1240.08,381,1203.83,381Z" transform="translate(-67.15 -103.73)"/>
    <path class="cls-2" d="M1078.85,498.81l0-117.89H999.72V602.86c0,.08,0,.17,0,.26s0,.17,0,.26a55.06,55.06,0,0,0,17.68,40.16,119,119,0,0,0,61.44-97.7Z" transform="translate(-67.15 -103.73)"/>
    <path class="cls-1" d="M259.81,380.91h-53.1s-.05-63.88-.05-64a55.22,55.22,0,0,0-54.77-55c-.16,0-.31,0-.46,0l-.45,0H127.43l0,118.94h-5.27a55.22,55.22,0,0,0-55,54.78c0,.16,0,.3,0,.46s0,.3,0,.45v23.61h60.26l0,142.7c-.21.09-.23.17-.23.26s0,.17,0,.26a55.22,55.22,0,0,0,54.78,55l.45,0,.45,0h23.85v0h53V579.08H206.66l.05-118.91h53.1Z" transform="translate(-67.15 -103.73)"/>
    <rect class="cls-2" x="60.28" y="277.16" width="79.28" height="79.31"/>
    <path class="cls-1" d="M523.68,519.78A138.71,138.71,0,1,0,385,658.56h0v-.21H504s0,0,0,0a79.23,79.23,0,0,0-79-79.21H385l.07.11-.07-.11a59.38,59.38,0,0,1-51.58-29.81H436.49l0,0h57.85v-.87l.06.87h.81A29.28,29.28,0,0,0,523.66,520h0C523.67,520,523.68,519.86,523.68,519.78ZM385,460.37a59.39,59.39,0,0,1,51.47,29.78H333.48A59.39,59.39,0,0,1,385,460.37Z" transform="translate(-67.15 -103.73)"/>
    <g>
      <path class="cls-2" d="M444.42,519.83a58.94,58.94,0,0,1-7.93,29.48h57.83v-.84l.06.84h1.3a29.29,29.29,0,0,0,28-29.28h0c0-.08,0-.17,0-.25a139.73,139.73,0,0,0-3.2-29.63H436.42A59,59,0,0,1,444.42,519.83Z" transform="translate(-67.15 -103.73)"/>
      <path class="cls-2" d="M325.5,519.83a59.13,59.13,0,0,1,8-29.68h-84a139,139,0,0,0,0,59.16h83.95A59,59,0,0,1,325.5,519.83Z" transform="translate(-67.15 -103.73)"/>
    </g>
  </g>
</svg>
